<?xml version="1.0" encoding="utf-8"?>
<!-- Generator: Adobe Illustrator 23.0.2, SVG Export Plug-In . SVG Version: 6.00 Build 0)  -->
<svg version="1.1" id="Layer_1" xmlns="http://www.w3.org/2000/svg" xmlns:xlink="http://www.w3.org/1999/xlink" x="0px" y="0px"
	 viewBox="0 0 594 125.7" style="enable-background:new 0 0 594 125.7;" xml:space="preserve">
<g>
	<g>
		<path d="M26.2,85.7c-6.2-4.4-14.5-10.5-23.5-16.9c10.7-4.4,20.8-7.8,31.7-12.3l13.4,10C37.4,77.7,31.4,81.9,26.2,85.7z
			 M113.8,51.6c-2.4-6.5-4.4-13.2-6.7-19.7c-2.5-7.1-5.1-13.9-8.6-19.9c-1.4-2.5-5-8.3-8.9-8.3c-1.2,0-2,0.5-2.8,1
			c-2.5,1.6-5.5,6.7-7.1,9.5c-2.3,4.1-6.9,11-10.3,15c-1.1,1.3-2.2,2.9-3.6,4c-2.1,1.8-4.7,4.1-7.4,5.2c-0.8,0.3-1.9,0.5-2.8,0.8
			c-2.1,0.7-3.7,1.6-5.3,3c-2.8,2.3-5.3,5.4-7.6,8.2c-0.5,0.6-1.2,1.5-1.8,2.4l11.9,9.3c9.3-11.1,19.7-21.7,27.1-41.7
			c0,0-2.6,22.2-21.8,45.3c-11.8,14.1-22,21.6-23.4,23c0,0,3.6-0.6,6.2,0.5c6.2,2.5,9.5,11.6,12.2,18c1.9,4.5,4.1,9.1,5.9,13.8
			c6.2-1.4,10.4-4.4,14.5-7.9c4.4-3.7,8.4-8.7,12.1-13.2c7.2-8.6,16.4-20.3,27.3-14.9c1.8,0.9,3.7,2.2,5.2,3.3
			c2.2,1.8,4,3.6,6.1,5.4c3.8,3.2,5.7,5.7,8.6,7.4C125.5,85,120,68.8,113.8,51.6z"/>
		<path d="M166.4,26.1l23.5,50.1l23.2-50.1h16.1v2.2c-8.5,0.7-9.1,1.1-8.8,11.9l0.8,35c0.3,10.9,0.6,11.2,9.1,11.9v2.2h-25.7v-2.2
			c8.2-0.7,8.5-1,8.4-11.9L212.6,36h-0.4l-23.8,52.3h-2.4l-22.5-50.9h-0.2l-1,27.2c-0.4,9.1-0.4,14.5,0,17.5
			c0.5,3.6,2.8,4.6,9.1,5.1v2.2h-22.9v-2.2c5.5-0.5,7.5-1.5,8.2-5.1c0.6-3,1.2-8.9,1.7-18.5l1.1-20.4c0.7-13.1,0-14.1-9.2-14.8v-2.2
			H166.4z"/>
		<path d="M257.3,81.4c-2.6,2-6.2,3.8-8.5,3.8c-2.9,0-6.4-2.4-6.4-7.6c0-3.5,1.7-5.5,5.1-7.3c1.8-1,7.7-3.6,9.8-4.5V81.4z
			 M272.5,85.7l-0.9-2.1c-1.8,0.9-3.4,1.3-4.2,1.3c-1.5,0-2.7-1.7-2.7-5.3V57.7c0-3.5-0.5-6.9-3.7-9.4c-1.9-1.5-5-2.4-7.7-2.4
			c-6.9,1.3-12.7,5-15,6.7c-2.1,1.6-3.3,2.9-3.3,4.2c0,1.8,2.6,3.3,4.2,3.3c1.1,0,1.9-0.7,2.2-1.8c1.1-4.1,3.1-8.2,7.9-8.2
			c5.2,0,8,3.2,8,9.2v3.3c-2.9,2-10.9,4.9-15.7,6.8c-5.1,2-7.4,5.4-7.4,9.8c0,5.4,4.6,11.2,11.7,11.2c2,0,7.3-3.7,11.4-6.3
			c0.6,2.4,2.1,5.7,5.4,6.3L272.5,85.7z"/>
		<path d="M287.6,76.5c0,7.6,3.6,9,6.2,9c1.8,0,3.9-0.8,5.7-1.9l1,2.2l-8,4c-1,0.5-2.2,0.8-2.9,0.8c-6.2,0-9.7-4-9.7-11.8V50.8h-7.1
			l-0.4-1l2.8-2.7h4.7V41l6.3-6.4h1.3v12.5h11.3c0.8,1.1,0.5,2.6-0.7,3.7h-10.6V76.5z"/>
		<path d="M318.2,52.7c3.3-3.5,8.6-6.6,13.8-6.8c8.4-0.2,13.4,5.4,13.4,14v20.6c0,5.5,0.5,5.9,6.4,6.4v2.3h-20.6v-2.2
			c6.1-0.6,6.6-1.1,6.6-6.5V62.9c0-7-2.5-11.6-9.6-11.6c-4,0.2-7.6,1.7-10,4.5v24.8c0,5.5,0.5,5.9,6.4,6.5v2.2H304v-2.2
			c6.1-0.6,6.6-1.1,6.6-6.5V32c0-5.9-0.2-5.8-6.9-6.4v-1.9c4.6-0.9,10.8-2.4,14.5-3.4V52.7z"/>
		<path d="M363.9,28.3l-3,0.4c-4.4,0.6-5,1.5-3.6,5.7l13.1,41.5h0.2l15.6-48.9h2.3l17.6,48.8h0.2c4-12.3,9.6-32.8,11.3-39.8
			c1.4-5.6,0.9-6.8-3.5-7.3l-2.8-0.4v-2.2h20.6v2.2c-6.4,0.8-7.1,1.2-10.3,10c-0.9,2.4-8,24.8-16.1,51.6h-2.6l-17.5-47.6l-0.2,0.2
			l-15.9,47.4h-2.7l-16.8-52.3c-2.6-8.1-4.1-8.8-9.6-9.3v-2.2h23.9V28.3z"/>
		<path d="M444.1,87.6c-8.5,0-13.8-9.4-13.8-21.8c0-10.2,5-16.9,11.5-16.9c8.9,0,13.5,10,13.5,20.8
			C455.2,82.8,450.1,87.6,444.1,87.6 M443,90.5c9.8,0,21.1-7.8,21.1-23c0-12.2-8.9-21.6-21.2-21.6c-8.8,0-21.5,7.1-21.5,23.5
			C421.4,79.5,429.3,90.5,443,90.5"/>
		<path d="M482.6,80.6c0,5.5,0.5,5.9,8.1,6.5v2.2h-22.4v-2.2c6.2-0.6,6.7-1.1,6.7-6.5V58.1c0-5.8-0.2-5.9-6.6-6.7v-1.7
			c4.6-1,9.3-2.1,14.2-3.9v10h0.2c2.2-3.8,7-9.8,11.7-9.8c2.9,0,5.3,2.6,5.3,4.6c0,1.7-1.1,3.9-3.1,4.8c-1.1,0.5-2,0.3-2.4-0.1
			c-1.4-1.2-2.5-2-4.2-2c-2.3,0-4.9,1.8-7.4,6.9V80.6z"/>
		<path d="M515.2,66.1c3.5-0.7,5-1.9,6.3-3.4c1.5-1.6,5.3-7,7.1-9.7c1.2-1.8,1.1-2.8-0.2-3l-2.6-0.3v-2.2l18.4-0.9v2.1l-3.9,0.9
			c-3.2,0.7-4.7,1.9-8.1,5.2c-2.2,2.1-3.7,4-8.3,9.4c2.6,3.3,12.7,14.9,15.9,18.3c2.6,2.7,4.3,4.1,5.6,4.3l2.2,0.4v2.2h-12.2
			c-1.3-1.6-5.1-6.3-7.7-9.5l-8-9.4c-1.6-1.9-2.2-2-3-2c-0.4,0-1,0.1-1.7,0.3v12c0,5.5,0.5,5.9,7,6.5v2.2h-22v-2.2
			c6.9-0.6,7.4-1.1,7.4-6.5V32c0-5.8-0.2-5.9-7-6.4v-1.9c4.6-0.9,10.9-2.4,14.6-3.4V66.1z"/>
		<path d="M551.6,75.7c1.6,5.6,5.9,11.9,11.7,11.9c3.5,0,6.9-2.4,6.9-7.2c0-4-2.2-6.8-7.6-9.2c-6.3-2.8-11.7-6.1-11.7-12.5
			c0-7,6-12.8,14.5-12.8c3.5,0,6.2,0.8,8.2,1.7c1,2.2,2,7.7,2.1,9.3l-2.3,0.6c-2.9-6.4-6-8.7-9.7-8.7c-4.4,0-6.4,3.4-6.4,6.6
			c0,4,4.2,6.7,8.5,8.5c7.1,2.9,11.8,6.7,11.8,13.2c0,9-8.3,13.3-15.7,13.3c-5,0-9.4-2.1-11.3-3.6c-0.6-1.5-1.2-6.8-1.2-10.6
			L551.6,75.7z"/>
	</g>
	<g>
		<path d="M580.2,52.9c0-3.5,2.8-6.3,6.4-6.3c3.6,0,6.4,2.8,6.4,6.3c0,3.5-2.8,6.3-6.4,6.3C583,59.3,580.2,56.5,580.2,52.9z
			 M591.9,52.9c0-3-2.5-5.4-5.4-5.4c-2.9,0-5.4,2.4-5.4,5.4c0,3,2.5,5.4,5.4,5.4C589.4,58.3,591.9,55.9,591.9,52.9z M589.6,56.4
			h-1.2l-2.1-3.2h-1.2v3.2h-1v-6.9h3c1.3,0,2.5,0.3,2.5,1.8c0,1.4-1,1.9-2.2,1.9L589.6,56.4z M586.3,52.2c0.9,0,2.4,0.2,2.4-0.9
			c0-0.7-0.9-0.8-1.7-0.8h-1.9v1.8H586.3z"/>
	</g>
</g>
</svg>
