<svg xmlns="http://www.w3.org/2000/svg" xmlns:xlink="http://www.w3.org/1999/xlink" width="8000" zoomAndPan="magnify" viewBox="0 0 6000 1499.999933" height="2000" preserveAspectRatio="xMidYMid meet" version="1.0"><defs><g/></defs><g fill="rgb(0%, 29.019165%, 67.83905%)" fill-opacity="1"><g transform="translate(900.844562, 1013.56427)"><g><path d="M 742.550781 -938.671875 C 741.199219 -942.726562 737.140625 -942.726562 731.730469 -944.082031 C 726.320312 -944.082031 722.261719 -940.023438 718.203125 -940.023438 C 712.792969 -938.671875 707.382812 -942.726562 703.328125 -942.726562 C 701.972656 -944.082031 699.269531 -944.082031 697.917969 -944.082031 C 695.210938 -944.082031 693.859375 -944.082031 692.507812 -942.726562 C 691.152344 -941.375 688.449219 -941.375 687.097656 -941.375 C 683.039062 -941.375 678.980469 -944.082031 673.570312 -944.082031 C 665.457031 -944.082031 657.339844 -944.082031 649.222656 -944.082031 C 643.8125 -944.082031 639.757812 -940.023438 635.699219 -940.023438 C 634.347656 -940.023438 631.640625 -941.375 630.289062 -942.726562 C 619.46875 -944.082031 608.648438 -944.082031 597.828125 -944.082031 C 587.007812 -944.082031 576.1875 -944.082031 565.367188 -942.726562 C 558.605469 -938.671875 550.488281 -938.671875 542.371094 -938.671875 C 538.316406 -938.671875 534.257812 -938.671875 530.199219 -938.671875 C 520.730469 -938.671875 511.265625 -937.316406 501.796875 -931.90625 C 497.738281 -930.554688 492.328125 -927.851562 486.917969 -927.851562 C 482.859375 -927.851562 480.15625 -927.851562 476.097656 -930.554688 C 474.746094 -931.90625 470.6875 -930.554688 466.628906 -929.203125 C 443.636719 -926.496094 423.347656 -914.324219 399.003906 -914.324219 C 393.59375 -911.621094 389.535156 -910.265625 384.125 -910.265625 C 377.363281 -910.265625 370.597656 -912.972656 363.835938 -915.675781 C 361.132812 -917.03125 359.777344 -917.03125 357.074219 -917.03125 C 353.015625 -917.03125 347.605469 -914.324219 343.546875 -908.914062 C 338.136719 -899.445312 330.023438 -895.390625 320.554688 -892.683594 C 296.207031 -883.214844 271.863281 -873.746094 246.164062 -868.335938 C 220.464844 -856.164062 189.355469 -856.164062 163.660156 -839.933594 C 160.953125 -835.875 154.191406 -838.582031 150.132812 -834.523438 C 132.550781 -829.113281 113.613281 -826.410156 96.03125 -816.941406 C 75.742188 -807.472656 55.453125 -799.359375 33.8125 -791.242188 C 13.527344 -784.480469 2.707031 -777.71875 -2.707031 -753.371094 C -4.058594 -745.253906 0 -741.199219 6.761719 -739.84375 C 12.171875 -739.84375 18.9375 -739.84375 24.347656 -743.902344 C 29.757812 -746.609375 35.167969 -739.84375 39.222656 -739.84375 C 40.578125 -739.84375 41.929688 -739.84375 43.28125 -741.199219 L 45.988281 -741.199219 C 55.453125 -746.609375 68.980469 -743.902344 77.09375 -753.371094 C 82.503906 -764.191406 205.585938 -807.472656 223.171875 -812.882812 C 255.632812 -825.054688 289.445312 -835.875 324.613281 -845.34375 C 324.613281 -842.640625 324.613281 -839.933594 325.964844 -835.875 C 325.964844 -823.703125 321.90625 -810.179688 320.554688 -798.003906 C 319.203125 -779.070312 315.144531 -761.484375 311.085938 -742.550781 C 308.382812 -730.378906 307.027344 -716.851562 304.324219 -703.328125 L 296.207031 -654.632812 C 292.152344 -632.992188 286.742188 -611.351562 284.035156 -588.359375 C 282.683594 -564.015625 273.214844 -539.667969 271.863281 -515.320312 C 265.101562 -504.5 270.511719 -492.328125 263.746094 -481.507812 C 256.984375 -446.34375 248.871094 -411.175781 243.460938 -374.65625 C 239.402344 -350.3125 233.992188 -324.613281 231.285156 -298.914062 C 228.582031 -279.976562 221.820312 -263.746094 221.820312 -243.460938 C 206.941406 -197.472656 189.355469 -112.261719 181.242188 -64.921875 C 174.480469 -24.347656 163.660156 13.527344 154.191406 51.398438 C 151.484375 66.273438 151.484375 75.742188 167.714844 83.859375 C 171.773438 87.914062 175.832031 90.621094 179.890625 91.972656 C 181.242188 91.972656 183.945312 93.324219 185.300781 93.324219 C 192.0625 93.324219 197.472656 89.269531 200.175781 81.152344 C 205.585938 59.511719 212.351562 36.519531 216.40625 13.527344 C 217.761719 1.351562 220.464844 -8.117188 223.171875 -18.9375 C 224.523438 -22.992188 242.105469 -91.972656 242.105469 -94.679688 C 243.460938 -110.910156 246.164062 -125.789062 252.925781 -140.664062 L 252.925781 -148.78125 C 252.925781 -156.894531 255.632812 -165.011719 256.984375 -173.125 C 259.691406 -182.59375 262.394531 -190.710938 265.101562 -200.175781 C 267.804688 -212.351562 271.863281 -224.523438 273.214844 -238.050781 C 274.566406 -254.28125 275.921875 -270.511719 281.332031 -286.742188 C 282.683594 -289.445312 284.035156 -294.855469 284.035156 -298.914062 C 289.445312 -327.316406 292.152344 -357.074219 301.617188 -385.476562 C 309.734375 -412.527344 308.382812 -440.933594 319.203125 -467.984375 C 320.554688 -469.335938 320.554688 -470.6875 320.554688 -470.6875 C 319.203125 -484.214844 324.613281 -495.035156 324.613281 -508.558594 C 325.964844 -520.730469 331.375 -532.90625 334.082031 -545.078125 C 336.785156 -554.546875 340.84375 -565.367188 340.84375 -576.1875 C 343.546875 -610 351.664062 -643.8125 359.777344 -676.277344 C 367.894531 -716.851562 376.007812 -758.78125 382.773438 -799.359375 C 384.125 -811.53125 389.535156 -823.703125 388.183594 -834.523438 C 388.183594 -843.992188 390.886719 -850.753906 392.238281 -860.222656 C 393.59375 -865.632812 397.648438 -868.335938 401.707031 -872.394531 C 413.878906 -879.160156 462.574219 -892.683594 476.097656 -892.683594 C 490.976562 -892.683594 505.855469 -898.09375 519.378906 -898.09375 C 522.085938 -898.09375 523.4375 -898.09375 526.140625 -898.09375 C 528.847656 -898.09375 530.199219 -898.09375 531.550781 -899.445312 C 538.316406 -904.855469 545.078125 -904.855469 551.839844 -904.855469 C 554.546875 -904.855469 557.25 -904.855469 559.957031 -904.855469 C 562.660156 -904.855469 565.367188 -903.503906 569.425781 -903.503906 C 577.539062 -903.503906 585.65625 -906.210938 595.121094 -906.210938 C 607.296875 -907.5625 619.46875 -910.265625 632.992188 -910.265625 C 638.402344 -910.265625 642.460938 -917.03125 647.871094 -914.324219 C 650.578125 -912.972656 653.28125 -912.972656 655.988281 -912.972656 C 662.75 -912.972656 668.160156 -915.675781 674.921875 -917.03125 C 678.980469 -921.085938 684.390625 -921.085938 689.800781 -921.085938 L 880.511719 -921.085938 C 896.742188 -917.03125 911.621094 -914.324219 929.203125 -914.324219 C 938.671875 -914.324219 949.492188 -915.675781 960.3125 -917.03125 C 954.902344 -922.441406 949.492188 -918.382812 945.433594 -922.441406 C 941.375 -923.792969 937.316406 -926.496094 931.90625 -926.496094 C 929.203125 -926.496094 926.496094 -925.144531 923.792969 -923.792969 C 921.085938 -929.203125 918.382812 -930.554688 915.675781 -930.554688 C 912.972656 -930.554688 910.265625 -930.554688 907.5625 -930.554688 C 904.855469 -931.90625 902.152344 -933.261719 898.09375 -933.261719 C 895.390625 -933.261719 892.683594 -931.90625 889.980469 -930.554688 C 888.625 -929.203125 885.921875 -929.203125 884.570312 -929.203125 C 880.511719 -929.203125 875.101562 -931.90625 871.042969 -931.90625 C 869.691406 -931.90625 868.335938 -931.90625 866.984375 -930.554688 C 865.632812 -929.203125 862.925781 -929.203125 861.574219 -929.203125 C 856.164062 -929.203125 852.105469 -933.261719 846.695312 -934.613281 C 842.640625 -937.316406 837.230469 -938.671875 833.171875 -938.671875 C 827.761719 -937.316406 821 -933.261719 816.941406 -934.613281 C 808.824219 -938.671875 803.414062 -938.671875 795.300781 -938.671875 C 788.539062 -938.671875 783.128906 -938.671875 777.71875 -941.375 C 776.363281 -941.375 775.011719 -942.726562 775.011719 -942.726562 C 770.953125 -942.726562 769.601562 -938.671875 766.894531 -934.613281 C 766.894531 -933.261719 765.542969 -933.261719 764.191406 -933.261719 C 762.839844 -933.261719 760.132812 -934.613281 758.78125 -937.316406 C 757.429688 -938.671875 756.074219 -942.726562 754.722656 -940.023438 C 753.371094 -935.964844 752.019531 -935.964844 750.664062 -935.964844 C 747.960938 -935.964844 745.253906 -938.671875 742.550781 -938.671875 Z M 208.292969 -132.550781 C 212.351562 -125.789062 213.703125 -120.378906 206.941406 -117.671875 C 206.941406 -121.730469 204.234375 -127.140625 208.292969 -132.550781 Z M 735.789062 -937.316406 C 738.492188 -937.316406 739.84375 -937.316406 742.550781 -938.671875 C 741.199219 -934.613281 739.84375 -933.261719 737.140625 -933.261719 C 735.789062 -933.261719 735.789062 -934.613281 734.433594 -934.613281 C 734.433594 -934.613281 734.433594 -937.316406 735.789062 -937.316406 Z M 224.523438 -225.875 L 223.171875 -228.582031 L 224.523438 -228.582031 Z M 204.234375 -6.761719 L 202.882812 -6.761719 L 202.882812 -8.117188 Z M 271.863281 -381.417969 L 271.863281 -380.066406 L 270.511719 -381.417969 Z M 254.28125 -381.417969 L 256.984375 -381.417969 Z M 213.703125 -152.839844 L 213.703125 -155.542969 Z M 213.703125 -152.839844 "/></g></g></g><g fill="rgb(0%, 29.019165%, 67.83905%)" fill-opacity="1"><g transform="translate(1302.55148, 1013.56427)"><g><path d="M 102.792969 -358.425781 C 98.734375 -346.253906 85.210938 -342.195312 81.152344 -330.023438 C 81.152344 -328.667969 78.449219 -328.667969 77.09375 -327.316406 C 77.09375 -327.316406 75.742188 -327.316406 74.390625 -325.964844 C 67.628906 -325.964844 66.273438 -321.90625 66.273438 -316.496094 C 66.273438 -308.382812 63.570312 -302.972656 56.808594 -300.265625 C 50.042969 -298.914062 45.988281 -293.503906 43.28125 -289.445312 C 41.929688 -286.742188 41.929688 -282.683594 40.578125 -279.976562 C 39.222656 -278.625 37.871094 -277.273438 36.519531 -277.273438 C 37.871094 -275.921875 39.222656 -275.921875 40.578125 -274.566406 C 36.519531 -265.101562 33.8125 -255.632812 29.757812 -246.164062 C 17.582031 -224.523438 13.527344 -198.824219 0 -177.183594 L 0 -175.832031 C -2.707031 -166.363281 -4.058594 -158.25 -6.761719 -150.132812 C -8.117188 -142.019531 -9.46875 -132.550781 -12.171875 -125.789062 C -16.230469 -116.320312 -13.527344 -108.203125 -14.878906 -100.089844 C -17.582031 -89.269531 -18.9375 -75.742188 -14.878906 -64.921875 C -10.820312 -48.691406 -9.46875 -31.109375 2.707031 -17.582031 C 9.46875 2.707031 43.28125 36.519531 66.273438 36.519531 C 74.390625 36.519531 82.503906 37.871094 90.621094 37.871094 C 102.792969 37.871094 114.96875 36.519531 127.140625 28.402344 C 131.199219 25.699219 136.609375 24.347656 142.019531 22.992188 C 158.25 17.582031 174.480469 9.46875 189.355469 -1.351562 C 205.585938 -13.527344 223.171875 -24.347656 239.402344 -36.519531 C 252.925781 -47.339844 269.15625 -55.453125 278.625 -68.980469 C 285.386719 -77.09375 292.152344 -82.503906 298.914062 -89.269531 L 315.144531 -105.5 C 320.554688 -110.910156 324.613281 -116.320312 323.257812 -123.082031 C 323.257812 -132.550781 336.785156 -131.199219 336.785156 -139.3125 L 336.785156 -140.664062 C 342.195312 -144.722656 346.253906 -150.132812 351.664062 -154.191406 C 365.1875 -166.363281 376.007812 -182.59375 390.886719 -193.414062 C 393.59375 -196.121094 393.59375 -200.175781 396.296875 -202.882812 C 421.996094 -235.34375 442.285156 -286.742188 436.875 -288.09375 C 436.875 -289.445312 436.875 -289.445312 435.519531 -289.445312 L 435.519531 -288.09375 C 434.167969 -286.742188 432.816406 -285.386719 431.464844 -284.035156 L 430.109375 -284.035156 L 430.109375 -282.683594 C 427.40625 -278.625 424.699219 -274.566406 420.644531 -269.15625 C 419.289062 -266.453125 417.9375 -265.101562 416.585938 -262.394531 L 416.585938 -258.335938 C 412.527344 -254.28125 407.117188 -247.515625 403.058594 -242.105469 C 389.535156 -224.523438 377.363281 -209.644531 363.835938 -192.0625 C 354.367188 -186.652344 342.195312 -174.480469 336.785156 -165.011719 C 332.726562 -158.25 327.316406 -152.839844 320.554688 -148.78125 C 305.675781 -137.960938 293.503906 -123.082031 278.625 -110.910156 C 262.394531 -89.269531 209.644531 -59.511719 186.652344 -47.339844 C 186.652344 -45.988281 185.300781 -47.339844 183.945312 -47.339844 C 182.59375 -48.691406 182.59375 -50.042969 183.945312 -51.398438 C 186.652344 -54.101562 188.003906 -56.808594 189.355469 -60.863281 C 190.710938 -60.863281 190.710938 -60.863281 192.0625 -62.21875 C 193.414062 -62.21875 196.121094 -60.863281 198.824219 -62.21875 C 205.585938 -66.273438 212.351562 -71.683594 219.113281 -75.742188 C 220.464844 -77.09375 220.464844 -79.800781 221.820312 -82.503906 C 231.285156 -81.152344 235.34375 -87.914062 240.753906 -93.324219 L 240.753906 -96.03125 C 239.402344 -96.03125 236.695312 -97.382812 236.695312 -96.03125 C 231.285156 -91.972656 224.523438 -89.269531 221.820312 -82.503906 C 208.292969 -79.800781 198.824219 -74.390625 192.0625 -62.21875 C 186.652344 -60.863281 183.945312 -60.863281 181.242188 -59.511719 C 165.011719 -51.398438 147.429688 -41.929688 131.199219 -33.8125 C 121.730469 -29.757812 112.261719 -24.347656 101.441406 -22.992188 C 86.5625 -18.9375 73.039062 -14.878906 56.808594 -14.878906 C 32.460938 -20.289062 18.9375 -45.988281 18.9375 -70.332031 C 20.289062 -77.09375 20.289062 -82.503906 18.9375 -89.269531 C 17.582031 -120.378906 29.757812 -146.074219 43.28125 -174.480469 C 50.042969 -159.601562 62.21875 -150.132812 78.449219 -150.132812 C 102.792969 -158.25 128.492188 -165.011719 151.484375 -178.535156 C 170.421875 -190.710938 189.355469 -200.175781 208.292969 -209.644531 C 216.40625 -215.054688 223.171875 -219.113281 227.230469 -227.230469 C 231.285156 -233.992188 236.695312 -239.402344 243.460938 -243.460938 C 261.042969 -255.632812 294.855469 -294.855469 294.855469 -317.847656 C 297.5625 -334.082031 297.5625 -351.664062 300.265625 -367.894531 C 301.617188 -386.828125 301.617188 -407.117188 294.855469 -426.054688 L 290.796875 -438.226562 C 275.921875 -455.808594 262.394531 -463.925781 239.402344 -463.925781 C 233.992188 -463.925781 227.230469 -463.925781 219.113281 -461.21875 C 200.175781 -455.808594 185.300781 -442.285156 169.070312 -431.464844 C 159.601562 -424.699219 151.484375 -416.585938 143.371094 -409.824219 C 139.3125 -397.648438 127.140625 -394.945312 119.023438 -386.828125 C 116.320312 -382.773438 113.613281 -378.714844 112.261719 -373.304688 C 110.910156 -367.894531 108.203125 -363.835938 102.792969 -362.484375 Z M 275.921875 -426.054688 C 279.976562 -417.9375 285.386719 -409.824219 284.035156 -400.355469 L 284.035156 -386.828125 C 284.035156 -285.386719 166.363281 -216.40625 78.449219 -189.355469 C 70.332031 -188.003906 62.21875 -186.652344 54.101562 -186.652344 C 47.339844 -186.652344 44.632812 -189.355469 50.042969 -200.175781 C 56.808594 -210.996094 58.160156 -224.523438 67.628906 -232.640625 C 71.683594 -236.695312 71.683594 -243.460938 74.390625 -247.515625 C 79.800781 -252.925781 81.152344 -262.394531 85.210938 -269.15625 C 96.03125 -284.035156 108.203125 -298.914062 119.023438 -312.4375 C 121.730469 -316.496094 124.433594 -319.203125 128.492188 -321.90625 C 143.371094 -332.726562 156.894531 -346.253906 170.421875 -359.777344 C 181.242188 -370.597656 193.414062 -382.773438 206.941406 -392.238281 C 224.523438 -403.058594 240.753906 -419.289062 258.335938 -430.109375 C 261.042969 -431.464844 263.746094 -432.816406 266.453125 -432.816406 C 270.511719 -432.816406 273.214844 -431.464844 275.921875 -426.054688 Z M 45.988281 -279.976562 C 45.988281 -275.921875 43.28125 -274.566406 40.578125 -274.566406 L 40.578125 -279.976562 Z M 52.75 -285.386719 C 52.75 -286.742188 54.101562 -288.09375 55.453125 -289.445312 C 55.453125 -289.445312 58.160156 -288.09375 59.511719 -288.09375 C 58.160156 -286.742188 58.160156 -286.742188 58.160156 -285.386719 Z M 415.234375 -252.925781 C 413.878906 -252.925781 413.878906 -254.28125 413.878906 -254.28125 C 415.234375 -254.28125 415.234375 -252.925781 415.234375 -252.925781 Z M 73.039062 -334.082031 L 74.390625 -332.726562 L 74.390625 -334.082031 Z M 73.039062 -313.792969 L 74.390625 -313.792969 L 74.390625 -312.4375 Z M 416.585938 -256.984375 C 417.9375 -256.984375 419.289062 -255.632812 419.289062 -255.632812 C 417.9375 -255.632812 417.9375 -256.984375 416.585938 -256.984375 Z M 52.75 -285.386719 C 51.398438 -285.386719 51.398438 -284.035156 51.398438 -284.035156 C 51.398438 -284.035156 51.398438 -284.035156 51.398438 -285.386719 Z M 52.75 -285.386719 "/></g></g></g><g fill="rgb(0%, 29.019165%, 67.83905%)" fill-opacity="1"><g transform="translate(1697.495756, 1013.56427)"><g><path d="M 210.996094 -169.070312 C 212.351562 -171.773438 209.644531 -174.480469 206.941406 -175.832031 L 206.941406 -178.535156 C 206.941406 -181.242188 206.941406 -183.945312 209.644531 -183.945312 C 209.644531 -183.945312 210.996094 -182.59375 212.351562 -182.59375 C 216.40625 -181.242188 221.820312 -179.890625 221.820312 -171.773438 L 221.820312 -146.074219 C 221.820312 -137.960938 225.875 -129.84375 227.230469 -121.730469 C 228.582031 -82.503906 252.925781 -55.453125 281.332031 -31.109375 C 282.683594 -29.757812 286.742188 -29.757812 288.09375 -28.402344 C 290.796875 -27.050781 293.503906 -25.699219 296.207031 -25.699219 C 313.792969 -25.699219 367.894531 -70.332031 380.066406 -82.503906 C 385.476562 -86.5625 382.773438 -93.324219 386.828125 -97.382812 C 390.886719 -100.089844 396.296875 -104.144531 400.355469 -108.203125 C 401.707031 -109.554688 401.707031 -112.261719 400.355469 -112.261719 L 396.296875 -112.261719 C 371.953125 -96.03125 348.957031 -79.800781 323.257812 -67.628906 C 315.144531 -63.570312 307.027344 -62.21875 298.914062 -62.21875 C 294.855469 -62.21875 290.796875 -62.21875 286.742188 -63.570312 C 274.566406 -79.800781 269.15625 -100.089844 269.15625 -120.378906 C 269.15625 -190.710938 304.324219 -340.84375 332.726562 -397.648438 C 342.195312 -413.878906 343.546875 -431.464844 340.84375 -449.046875 C 334.082031 -453.105469 327.316406 -457.164062 320.554688 -457.164062 C 316.496094 -457.164062 312.4375 -455.808594 308.382812 -453.105469 C 307.027344 -451.753906 304.324219 -451.753906 302.972656 -451.753906 C 300.265625 -451.753906 298.914062 -451.753906 296.207031 -453.105469 C 277.273438 -462.574219 258.335938 -462.574219 238.050781 -462.574219 C 205.585938 -461.21875 177.183594 -453.105469 151.484375 -431.464844 C 140.664062 -421.996094 129.84375 -409.824219 116.320312 -404.414062 C 114.96875 -403.058594 113.613281 -401.707031 113.613281 -400.355469 C 109.554688 -392.238281 102.792969 -384.125 96.03125 -381.417969 C 85.210938 -376.007812 87.914062 -363.835938 78.449219 -357.074219 C 50.042969 -331.375 29.757812 -289.445312 13.527344 -254.28125 C 10.820312 -251.574219 9.46875 -248.871094 8.117188 -246.164062 C -16.230469 -171.773438 -28.402344 -125.789062 -28.402344 -44.632812 C -28.402344 -18.9375 -18.9375 4.058594 1.351562 21.640625 L 10.820312 31.109375 C 14.878906 35.167969 20.289062 37.871094 27.050781 37.871094 C 33.8125 36.519531 41.929688 36.519531 48.691406 32.460938 C 68.980469 22.992188 116.320312 -8.117188 127.140625 -25.699219 C 129.84375 -29.757812 137.960938 -31.109375 140.664062 -36.519531 C 144.722656 -44.632812 151.484375 -51.398438 156.894531 -58.160156 C 152.839844 -68.980469 166.363281 -74.390625 167.714844 -82.503906 C 169.070312 -90.621094 174.480469 -98.734375 178.535156 -105.5 C 181.242188 -113.613281 185.300781 -120.378906 190.710938 -128.492188 C 193.414062 -133.902344 197.472656 -137.960938 196.121094 -144.722656 C 205.585938 -148.78125 208.292969 -159.601562 210.996094 -169.070312 Z M 29.757812 2.707031 C 28.402344 4.058594 25.699219 4.058594 22.992188 5.410156 C 20.289062 2.707031 17.582031 1.351562 17.582031 0 C 14.878906 -2.707031 14.878906 -6.761719 14.878906 -9.46875 C 14.878906 -18.9375 14.878906 -28.402344 10.820312 -37.871094 C 9.46875 -40.578125 9.46875 -44.632812 10.820312 -48.691406 C 16.230469 -67.628906 16.230469 -86.5625 18.9375 -106.851562 C 21.640625 -113.613281 22.992188 -121.730469 24.347656 -128.492188 C 32.460938 -152.839844 36.519531 -178.535156 47.339844 -201.53125 C 54.101562 -216.40625 58.160156 -231.285156 64.921875 -244.8125 C 67.628906 -250.222656 71.683594 -254.28125 74.390625 -259.691406 C 79.800781 -271.863281 89.269531 -281.332031 91.972656 -293.503906 C 93.324219 -294.855469 93.324219 -297.5625 94.679688 -298.914062 C 108.203125 -308.382812 114.96875 -323.257812 128.492188 -334.082031 C 139.3125 -343.546875 148.78125 -357.074219 160.953125 -366.542969 C 181.242188 -381.417969 200.175781 -396.296875 224.523438 -405.765625 C 238.050781 -411.175781 250.222656 -419.289062 261.042969 -430.109375 C 265.101562 -432.816406 266.453125 -434.167969 269.15625 -434.167969 C 271.863281 -434.167969 273.214844 -432.816406 275.921875 -430.109375 C 284.035156 -423.347656 285.386719 -419.289062 281.332031 -409.824219 C 274.566406 -393.59375 266.453125 -377.363281 262.394531 -359.777344 C 259.691406 -340.84375 244.8125 -294.855469 235.34375 -277.273438 C 223.171875 -250.222656 209.644531 -223.171875 196.121094 -194.765625 C 189.355469 -177.183594 177.183594 -160.953125 166.363281 -144.722656 C 158.25 -128.492188 147.429688 -113.613281 139.3125 -97.382812 C 112.261719 -54.101562 71.683594 -24.347656 29.757812 2.707031 Z M 196.121094 -159.601562 C 197.472656 -160.953125 197.472656 -162.304688 197.472656 -163.660156 L 200.175781 -160.953125 C 200.175781 -159.601562 198.824219 -158.25 197.472656 -156.894531 C 197.472656 -158.25 196.121094 -158.25 196.121094 -159.601562 Z M 41.929688 -288.09375 L 43.28125 -288.09375 L 43.28125 -286.742188 Z M 220.464844 -204.234375 L 219.113281 -204.234375 L 219.113281 -205.585938 Z M 37.871094 -278.625 L 37.871094 -277.273438 L 36.519531 -277.273438 Z M 171.773438 -114.96875 L 171.773438 -117.671875 Z M 171.773438 -114.96875 "/></g></g></g><g fill="rgb(0%, 29.019165%, 67.83905%)" fill-opacity="1"><g transform="translate(2082.972278, 1013.56427)"><g><path d="M 369.246094 -188.003906 C 378.714844 -198.824219 384.125 -210.996094 390.886719 -224.523438 C 397.648438 -227.230469 399.003906 -236.695312 403.058594 -242.105469 C 403.058594 -243.460938 404.414062 -243.460938 405.765625 -243.460938 C 407.117188 -243.460938 409.824219 -242.105469 411.175781 -240.753906 C 415.234375 -236.695312 416.585938 -232.640625 415.234375 -228.582031 C 413.878906 -227.230469 412.527344 -227.230469 411.175781 -228.582031 C 409.824219 -229.933594 408.46875 -231.285156 407.117188 -233.992188 C 405.765625 -229.933594 405.765625 -225.875 404.414062 -221.820312 C 401.707031 -217.761719 403.058594 -212.351562 405.765625 -208.292969 C 407.117188 -206.941406 404.414062 -205.585938 403.058594 -204.234375 C 399.003906 -202.882812 399.003906 -200.175781 401.707031 -196.121094 C 405.765625 -190.710938 405.765625 -185.300781 400.355469 -181.242188 C 390.886719 -175.832031 386.828125 -167.714844 389.535156 -156.894531 C 390.886719 -148.78125 390.886719 -142.019531 388.183594 -135.253906 C 386.828125 -132.550781 388.183594 -127.140625 390.886719 -125.789062 C 394.945312 -119.023438 393.59375 -114.96875 389.535156 -109.554688 C 385.476562 -104.144531 386.828125 -104.144531 392.238281 -97.382812 C 394.945312 -96.03125 397.648438 -93.324219 396.296875 -91.972656 C 390.886719 -81.152344 397.648438 -70.332031 393.59375 -59.511719 C 390.886719 -51.398438 392.238281 -40.578125 401.707031 -33.8125 C 407.117188 -29.757812 408.46875 -24.347656 408.46875 -18.9375 C 408.46875 -10.820312 413.878906 -5.410156 420.644531 0 C 430.109375 9.46875 443.636719 16.230469 451.753906 27.050781 C 454.457031 29.757812 457.164062 31.109375 461.21875 31.109375 C 462.574219 31.109375 465.277344 29.757812 467.984375 29.757812 C 480.15625 28.402344 490.976562 27.050781 499.089844 20.289062 C 511.265625 9.46875 523.4375 2.707031 541.019531 -4.058594 C 543.726562 -6.761719 541.019531 -4.058594 541.019531 -6.761719 C 541.019531 -8.117188 538.316406 -10.820312 536.960938 -10.820312 C 528.847656 -6.761719 519.378906 -2.707031 511.265625 2.707031 C 499.089844 8.117188 486.917969 9.46875 473.394531 9.46875 C 467.984375 8.117188 463.925781 6.761719 461.21875 2.707031 C 453.105469 -10.820312 450.398438 -27.050781 444.988281 -41.929688 C 447.695312 -51.398438 444.988281 -60.863281 443.636719 -71.683594 C 440.933594 -82.503906 444.988281 -93.324219 443.636719 -104.144531 C 442.285156 -114.96875 446.34375 -124.433594 447.695312 -135.253906 C 447.695312 -146.074219 449.046875 -156.894531 451.753906 -166.363281 C 457.164062 -188.003906 467.984375 -206.941406 469.335938 -229.933594 C 474.746094 -239.402344 477.449219 -248.871094 480.15625 -259.691406 C 482.859375 -273.214844 485.566406 -286.742188 489.625 -298.914062 C 497.738281 -325.964844 507.207031 -353.015625 515.320312 -380.066406 C 524.789062 -404.414062 531.550781 -430.109375 535.609375 -455.808594 C 536.960938 -458.515625 536.960938 -461.21875 535.609375 -462.574219 C 528.847656 -477.449219 512.617188 -489.625 497.738281 -490.976562 C 488.269531 -490.976562 484.214844 -490.976562 476.097656 -485.566406 C 470.6875 -481.507812 472.039062 -476.097656 470.6875 -472.039062 C 469.335938 -467.984375 469.335938 -463.925781 467.984375 -459.867188 C 461.21875 -431.464844 454.457031 -403.058594 438.226562 -378.714844 C 435.519531 -376.007812 434.167969 -373.304688 432.816406 -370.597656 C 427.40625 -358.425781 420.644531 -347.605469 421.996094 -334.082031 C 423.347656 -331.375 421.996094 -328.667969 419.289062 -327.316406 C 413.878906 -325.964844 412.527344 -321.90625 409.824219 -317.847656 C 397.648438 -301.617188 393.59375 -281.332031 380.066406 -266.453125 C 370.597656 -244.8125 358.425781 -224.523438 344.902344 -205.585938 C 324.613281 -167.714844 300.265625 -131.199219 270.511719 -100.089844 C 266.453125 -94.679688 244.8125 -77.09375 238.050781 -77.09375 C 233.992188 -77.09375 228.582031 -78.449219 227.230469 -82.503906 C 219.113281 -96.03125 210.996094 -109.554688 208.292969 -124.433594 C 205.585938 -146.074219 200.175781 -167.714844 204.234375 -189.355469 C 205.585938 -198.824219 205.585938 -209.644531 205.585938 -219.113281 C 205.585938 -229.933594 209.644531 -239.402344 206.941406 -251.574219 C 205.585938 -262.394531 216.40625 -267.804688 215.054688 -278.625 C 215.054688 -282.683594 217.761719 -285.386719 216.40625 -288.09375 C 216.40625 -288.09375 224.523438 -331.375 225.875 -334.082031 C 227.230469 -344.902344 229.933594 -355.722656 232.640625 -367.894531 C 238.050781 -384.125 235.34375 -401.707031 246.164062 -416.585938 L 246.164062 -420.644531 C 244.8125 -428.757812 247.515625 -435.519531 248.871094 -443.636719 C 252.925781 -458.515625 251.574219 -472.039062 246.164062 -486.917969 C 240.753906 -490.976562 235.34375 -493.679688 231.285156 -496.386719 C 225.875 -499.089844 220.464844 -500.445312 216.40625 -500.445312 C 209.644531 -500.445312 202.882812 -497.738281 198.824219 -492.328125 C 182.59375 -463.925781 170.421875 -436.875 158.25 -407.117188 C 146.074219 -385.476562 135.253906 -365.1875 125.789062 -342.195312 C 121.730469 -335.433594 119.023438 -328.667969 114.96875 -320.554688 C 109.554688 -305.675781 98.734375 -293.503906 96.03125 -277.273438 C 96.03125 -271.863281 81.152344 -240.753906 73.039062 -236.695312 C 70.332031 -239.402344 71.683594 -242.105469 71.683594 -243.460938 C 74.390625 -254.28125 79.800781 -265.101562 79.800781 -277.273438 C 81.152344 -288.09375 83.859375 -298.914062 86.5625 -311.085938 C 89.269531 -321.90625 90.621094 -332.726562 91.972656 -344.902344 C 93.324219 -354.367188 94.679688 -363.835938 97.382812 -373.304688 C 102.792969 -388.183594 104.144531 -403.058594 108.203125 -417.9375 C 112.261719 -436.875 112.261719 -455.808594 114.96875 -474.746094 L 114.96875 -481.507812 C 110.910156 -488.269531 108.203125 -495.035156 104.144531 -500.445312 C 98.734375 -508.558594 91.972656 -513.96875 83.859375 -513.96875 C 73.039062 -513.96875 60.863281 -505.855469 59.511719 -495.035156 C 56.808594 -482.859375 52.75 -470.6875 51.398438 -457.164062 C 45.988281 -430.109375 43.28125 -404.414062 37.871094 -377.363281 C 35.167969 -362.484375 32.460938 -348.957031 36.519531 -332.726562 C 36.519531 -330.023438 37.871094 -325.964844 35.167969 -323.257812 C 27.050781 -312.4375 22.992188 -298.914062 25.699219 -284.035156 L 25.699219 -281.332031 C 13.527344 -271.863281 -21.640625 -136.609375 -24.347656 -117.671875 C -29.757812 -114.96875 -29.757812 -108.203125 -31.109375 -102.792969 C -40.578125 -83.859375 -44.632812 -60.863281 -50.042969 -40.578125 C -54.101562 -28.402344 -52.75 -22.992188 -41.929688 -16.230469 C -35.167969 -12.171875 -31.109375 -8.117188 -27.050781 -1.351562 L -17.582031 8.117188 C -14.878906 9.46875 -12.171875 9.46875 -9.46875 9.46875 C -5.410156 9.46875 -2.707031 9.46875 0 6.761719 C 0 5.410156 1.351562 4.058594 2.707031 2.707031 C 6.761719 -9.46875 10.820312 -21.640625 14.878906 -35.167969 C 17.582031 -48.691406 25.699219 -59.511719 25.699219 -74.390625 C 27.050781 -75.742188 28.402344 -78.449219 29.757812 -79.800781 C 39.222656 -94.679688 48.691406 -106.851562 55.453125 -123.082031 C 59.511719 -132.550781 64.921875 -140.664062 70.332031 -148.78125 C 77.09375 -159.601562 85.210938 -171.773438 89.269531 -183.945312 C 96.03125 -204.234375 104.144531 -224.523438 113.613281 -244.8125 C 114.96875 -244.8125 114.96875 -247.515625 114.96875 -248.871094 C 106.851562 -258.335938 113.613281 -262.394531 120.378906 -265.101562 C 123.082031 -266.453125 124.433594 -267.804688 125.789062 -270.511719 C 128.492188 -273.214844 128.492188 -275.921875 127.140625 -278.625 C 124.433594 -282.683594 119.023438 -284.035156 119.023438 -289.445312 C 124.433594 -292.152344 128.492188 -293.503906 132.550781 -296.207031 C 136.609375 -296.207031 139.3125 -297.5625 140.664062 -300.265625 C 143.371094 -305.675781 146.074219 -309.734375 148.78125 -315.144531 C 148.78125 -317.847656 148.78125 -320.554688 144.722656 -319.203125 C 140.664062 -317.847656 139.3125 -319.203125 139.3125 -321.90625 C 137.960938 -325.964844 137.960938 -330.023438 143.371094 -331.375 C 150.132812 -331.375 155.542969 -334.082031 155.542969 -340.84375 C 156.894531 -355.722656 167.714844 -361.132812 178.535156 -367.894531 C 179.890625 -361.132812 170.421875 -359.777344 173.125 -351.664062 C 177.183594 -346.253906 171.773438 -340.84375 170.421875 -335.433594 C 169.070312 -330.023438 166.363281 -324.613281 167.714844 -319.203125 C 167.714844 -312.4375 162.304688 -305.675781 166.363281 -297.5625 C 171.773438 -289.445312 158.25 -286.742188 160.953125 -278.625 L 160.953125 -275.921875 C 167.714844 -270.511719 167.714844 -270.511719 162.304688 -265.101562 C 158.25 -259.691406 151.484375 -254.28125 154.191406 -244.8125 C 155.542969 -242.105469 154.191406 -239.402344 154.191406 -236.695312 C 150.132812 -216.40625 150.132812 -194.765625 154.191406 -173.125 C 156.894531 -152.839844 156.894531 -132.550781 167.714844 -113.613281 C 175.832031 -96.03125 182.59375 -79.800781 202.882812 -70.332031 C 206.941406 -67.628906 210.996094 -63.570312 215.054688 -60.863281 C 224.523438 -51.398438 236.695312 -48.691406 247.515625 -47.339844 C 250.222656 -47.339844 254.28125 -45.988281 256.984375 -45.988281 C 266.453125 -45.988281 274.566406 -50.042969 279.976562 -59.511719 C 286.742188 -68.980469 290.796875 -81.152344 304.324219 -85.210938 C 305.675781 -86.5625 305.675781 -87.914062 307.027344 -89.269531 C 315.144531 -105.5 327.316406 -119.023438 336.785156 -135.253906 C 347.605469 -152.839844 363.835938 -165.011719 367.894531 -185.300781 C 367.894531 -186.652344 369.246094 -186.652344 369.246094 -188.003906 Z M 378.714844 -232.640625 C 388.183594 -232.640625 388.183594 -232.640625 389.535156 -225.875 L 374.65625 -225.875 C 373.304688 -229.933594 371.953125 -233.992188 378.714844 -232.640625 Z M 366.542969 -208.292969 C 365.1875 -206.941406 362.484375 -206.941406 361.132812 -205.585938 C 361.132812 -208.292969 361.132812 -209.644531 362.484375 -212.351562 C 362.484375 -213.703125 363.835938 -213.703125 366.542969 -213.703125 C 369.246094 -215.054688 369.246094 -210.996094 366.542969 -208.292969 Z M 412.527344 -156.894531 C 413.878906 -158.25 415.234375 -160.953125 416.585938 -162.304688 L 419.289062 -159.601562 C 420.644531 -156.894531 419.289062 -155.542969 416.585938 -155.542969 C 415.234375 -155.542969 413.878906 -156.894531 412.527344 -156.894531 Z M 71.683594 -224.523438 C 70.332031 -221.820312 68.980469 -220.464844 67.628906 -219.113281 L 67.628906 -225.875 C 67.628906 -227.230469 68.980469 -227.230469 68.980469 -227.230469 Z M 174.480469 -380.066406 C 174.480469 -381.417969 175.832031 -381.417969 175.832031 -381.417969 L 179.890625 -381.417969 C 179.890625 -380.066406 181.242188 -380.066406 179.890625 -378.714844 C 179.890625 -377.363281 174.480469 -378.714844 174.480469 -380.066406 Z M 392.238281 -263.746094 C 396.296875 -261.042969 390.886719 -262.394531 390.886719 -261.042969 C 390.886719 -262.394531 392.238281 -263.746094 392.238281 -263.746094 Z M 444.988281 -202.882812 L 443.636719 -201.53125 L 443.636719 -202.882812 Z M 430.109375 -335.433594 L 431.464844 -334.082031 L 430.109375 -334.082031 Z M 423.347656 -116.320312 L 424.699219 -116.320312 L 424.699219 -114.96875 Z M 427.40625 -156.894531 L 428.757812 -156.894531 L 428.757812 -155.542969 Z M 128.492188 -302.972656 L 127.140625 -302.972656 L 127.140625 -304.324219 Z M 411.175781 -293.503906 L 409.824219 -293.503906 L 409.824219 -294.855469 Z M 435.519531 -294.855469 L 436.875 -294.855469 L 436.875 -293.503906 Z M 428.757812 -131.199219 L 427.40625 -129.84375 L 427.40625 -131.199219 Z M 436.875 -252.925781 L 435.519531 -252.925781 L 436.875 -254.28125 Z M 420.644531 -258.335938 L 419.289062 -258.335938 L 419.289062 -259.691406 Z M 423.347656 -196.121094 L 423.347656 -198.824219 Z M 447.695312 -288.09375 L 447.695312 -290.796875 Z M 447.695312 -288.09375 "/></g></g></g><g fill="rgb(0%, 29.019165%, 67.83905%)" fill-opacity="1"><g transform="translate(2625.344307, 1013.56427)"><g/></g></g><g fill="rgb(0%, 29.019165%, 67.83905%)" fill-opacity="1"><g transform="translate(3020.288583, 1013.56427)"><g><path d="M 110.910156 -197.472656 C 120.378906 -205.585938 119.023438 -213.703125 119.023438 -220.464844 C 131.199219 -231.285156 136.609375 -246.164062 136.609375 -266.453125 C 135.253906 -270.511719 135.253906 -274.566406 136.609375 -277.273438 C 137.960938 -281.332031 140.664062 -285.386719 147.429688 -286.742188 C 148.78125 -286.742188 148.78125 -288.09375 150.132812 -288.09375 C 152.839844 -288.09375 154.191406 -285.386719 156.894531 -282.683594 C 160.953125 -279.976562 163.660156 -277.273438 165.011719 -273.214844 C 181.242188 -240.753906 202.882812 -215.054688 223.171875 -185.300781 C 232.640625 -175.832031 242.105469 -163.660156 251.574219 -152.839844 C 275.921875 -113.613281 311.085938 -85.210938 338.136719 -48.691406 C 346.253906 -39.222656 393.59375 9.46875 404.414062 16.230469 C 408.46875 27.050781 497.738281 96.03125 509.910156 104.144531 C 538.316406 120.378906 570.777344 137.960938 604.589844 140.664062 C 612.707031 140.664062 615.410156 139.3125 622.171875 135.253906 C 616.761719 132.550781 610 129.84375 604.589844 127.140625 C 584.300781 123.082031 568.070312 113.613281 547.78125 102.792969 C 545.078125 101.441406 543.726562 98.734375 542.371094 98.734375 C 527.496094 93.324219 515.320312 83.859375 504.5 74.390625 C 493.679688 63.570312 485.566406 52.75 476.097656 45.988281 C 465.277344 37.871094 453.105469 28.402344 450.398438 16.230469 C 447.695312 14.878906 446.34375 12.171875 444.988281 13.527344 C 436.875 16.230469 435.519531 5.410156 428.757812 4.058594 C 420.644531 1.351562 426.054688 -2.707031 426.054688 -6.761719 C 426.054688 -14.878906 413.878906 -27.050781 403.058594 -28.402344 C 399.003906 -28.402344 393.59375 -31.109375 393.59375 -32.460938 C 396.296875 -40.578125 390.886719 -47.339844 384.125 -51.398438 C 378.714844 -60.863281 367.894531 -70.332031 361.132812 -78.449219 C 347.605469 -100.089844 328.667969 -113.613281 319.203125 -132.550781 C 297.5625 -152.839844 278.625 -177.183594 263.746094 -198.824219 C 251.574219 -221.820312 235.34375 -236.695312 227.230469 -258.335938 C 225.875 -261.042969 223.171875 -265.101562 221.820312 -267.804688 C 206.941406 -281.332031 196.121094 -305.675781 196.121094 -325.964844 C 196.121094 -331.375 197.472656 -334.082031 200.175781 -335.433594 C 208.292969 -339.492188 215.054688 -343.546875 215.054688 -353.015625 C 216.40625 -355.722656 215.054688 -361.132812 220.464844 -361.132812 C 224.523438 -361.132812 227.230469 -363.835938 228.582031 -367.894531 C 228.582031 -371.953125 228.582031 -376.007812 232.640625 -376.007812 C 233.992188 -376.007812 235.34375 -374.65625 236.695312 -374.65625 C 240.753906 -374.65625 243.460938 -380.066406 247.515625 -385.476562 C 252.925781 -390.886719 256.984375 -396.296875 263.746094 -399.003906 C 271.863281 -403.058594 273.214844 -415.234375 277.273438 -419.289062 C 286.742188 -424.699219 315.144531 -455.808594 316.496094 -465.277344 C 317.847656 -478.804688 331.375 -478.804688 338.136719 -489.625 C 339.492188 -493.679688 343.546875 -497.738281 343.546875 -503.148438 C 344.902344 -508.558594 348.957031 -511.265625 353.015625 -512.617188 C 365.1875 -520.730469 370.597656 -530.199219 374.65625 -542.371094 C 377.363281 -551.839844 382.773438 -558.605469 388.183594 -568.070312 C 399.003906 -581.597656 405.765625 -596.476562 415.234375 -608.648438 C 421.996094 -626.230469 430.109375 -638.402344 439.578125 -649.222656 C 444.988281 -657.339844 450.398438 -665.457031 454.457031 -673.570312 C 469.335938 -696.5625 482.859375 -719.558594 496.386719 -743.902344 C 505.855469 -756.074219 516.675781 -769.601562 524.789062 -785.832031 C 535.609375 -799.359375 534.257812 -815.589844 520.730469 -831.820312 C 516.675781 -837.230469 505.855469 -845.34375 499.089844 -845.34375 C 496.386719 -845.34375 495.035156 -845.34375 492.328125 -843.992188 C 482.859375 -841.285156 473.394531 -833.171875 467.984375 -825.054688 C 459.867188 -816.941406 455.808594 -810.179688 451.753906 -803.414062 C 423.347656 -754.722656 394.945312 -706.03125 369.246094 -657.339844 C 338.136719 -600.53125 301.617188 -542.371094 263.746094 -489.625 C 246.164062 -469.335938 229.933594 -446.34375 215.054688 -426.054688 C 208.292969 -416.585938 198.824219 -405.765625 189.355469 -397.648438 C 186.652344 -394.945312 185.300781 -392.238281 178.535156 -392.238281 C 182.59375 -407.117188 186.652344 -424.699219 190.710938 -438.226562 C 192.0625 -443.636719 196.121094 -447.695312 196.121094 -451.753906 C 197.472656 -462.574219 194.765625 -476.097656 204.234375 -485.566406 C 205.585938 -488.269531 205.585938 -492.328125 205.585938 -496.386719 C 208.292969 -504.5 209.644531 -509.910156 212.351562 -515.320312 C 215.054688 -524.789062 215.054688 -536.960938 220.464844 -545.078125 C 224.523438 -565.367188 227.230469 -588.359375 233.992188 -610 C 240.753906 -642.460938 247.515625 -673.570312 254.28125 -704.679688 C 256.984375 -722.261719 261.042969 -742.550781 266.453125 -758.78125 C 270.511719 -781.773438 274.566406 -806.121094 278.625 -829.113281 C 288.09375 -854.8125 290.796875 -881.863281 294.855469 -912.972656 C 297.5625 -919.734375 293.503906 -931.90625 289.445312 -940.023438 C 277.273438 -958.957031 263.746094 -964.367188 242.105469 -964.367188 C 232.640625 -963.015625 224.523438 -958.957031 221.820312 -949.492188 C 221.820312 -944.082031 217.761719 -940.023438 217.761719 -934.613281 C 217.761719 -872.394531 205.585938 -803.414062 189.355469 -743.902344 C 183.945312 -715.5 178.535156 -688.449219 171.773438 -661.398438 C 167.714844 -645.167969 163.660156 -630.289062 160.953125 -611.351562 C 156.894531 -585.65625 147.429688 -558.605469 139.3125 -528.847656 C 133.902344 -543.726562 131.199219 -554.546875 121.730469 -564.015625 C 112.261719 -576.1875 104.144531 -581.597656 93.324219 -581.597656 C 87.914062 -581.597656 81.152344 -580.246094 74.390625 -577.539062 C 66.273438 -573.480469 62.21875 -566.71875 62.21875 -557.25 C 62.21875 -545.078125 58.160156 -530.199219 54.101562 -516.675781 C 44.632812 -489.625 32.460938 -461.21875 21.640625 -434.167969 C 16.230469 -420.644531 10.820312 -403.058594 6.761719 -389.535156 C 1.351562 -377.363281 0 -365.1875 -4.058594 -353.015625 C -8.117188 -338.136719 -8.117188 -324.613281 -6.761719 -312.4375 C -5.410156 -300.265625 -5.410156 -286.742188 5.410156 -279.976562 C 24.347656 -261.042969 33.8125 -261.042969 58.160156 -261.042969 C 59.511719 -261.042969 60.863281 -263.746094 63.570312 -263.746094 C 64.921875 -263.746094 66.273438 -262.394531 67.628906 -261.042969 C 67.628906 -258.335938 68.980469 -255.632812 67.628906 -250.222656 C 54.101562 -197.472656 40.578125 -146.074219 25.699219 -93.324219 C 16.230469 -51.398438 5.410156 -10.820312 -12.171875 27.050781 C -16.230469 40.578125 -13.527344 48.691406 -6.761719 56.808594 C -5.410156 58.160156 -4.058594 59.511719 -2.707031 59.511719 C 1.351562 59.511719 5.410156 56.808594 8.117188 58.160156 C 10.820312 59.511719 14.878906 63.570312 18.9375 67.628906 C 25.699219 67.628906 32.460938 67.628906 33.8125 59.511719 C 39.222656 47.339844 45.988281 33.8125 56.808594 22.992188 L 56.808594 17.582031 C 55.453125 16.230469 54.101562 13.527344 55.453125 9.46875 C 66.273438 -10.820312 70.332031 -31.109375 74.390625 -54.101562 C 81.152344 -77.09375 93.324219 -101.441406 91.972656 -127.140625 C 91.972656 -131.199219 93.324219 -135.253906 96.03125 -137.960938 C 106.851562 -148.78125 108.203125 -156.894531 109.554688 -170.421875 C 109.554688 -177.183594 110.910156 -183.945312 109.554688 -190.710938 C 108.203125 -192.0625 109.554688 -197.472656 110.910156 -197.472656 Z M 51.398438 -486.917969 C 55.453125 -497.738281 60.863281 -507.207031 66.273438 -516.675781 C 68.980469 -513.96875 71.683594 -511.265625 71.683594 -509.910156 C 75.742188 -476.097656 87.914062 -443.636719 97.382812 -409.824219 C 102.792969 -396.296875 102.792969 -384.125 98.734375 -369.246094 C 94.679688 -357.074219 91.972656 -343.546875 87.914062 -330.023438 C 85.210938 -319.203125 77.09375 -313.792969 68.980469 -309.734375 C 58.160156 -305.675781 44.632812 -300.265625 31.109375 -300.265625 C 22.992188 -300.265625 9.46875 -304.324219 9.46875 -313.792969 C 8.117188 -335.433594 10.820312 -355.722656 16.230469 -376.007812 C 22.992188 -415.234375 39.222656 -447.695312 51.398438 -486.917969 Z M 426.054688 -710.089844 C 421.996094 -693.859375 417.9375 -674.921875 404.414062 -664.101562 C 403.058594 -661.398438 400.355469 -661.398438 396.296875 -660.046875 L 396.296875 -646.519531 C 396.296875 -637.050781 392.238281 -628.9375 382.773438 -620.820312 C 378.714844 -618.117188 378.714844 -612.707031 378.714844 -608.648438 C 378.714844 -603.238281 374.65625 -597.828125 369.246094 -592.417969 C 366.542969 -587.007812 361.132812 -582.949219 354.367188 -577.539062 C 351.664062 -573.480469 350.3125 -570.777344 353.015625 -566.71875 C 354.367188 -562.660156 354.367188 -558.605469 351.664062 -555.898438 C 348.957031 -553.195312 343.546875 -549.136719 340.84375 -546.429688 C 336.785156 -542.371094 335.433594 -538.316406 332.726562 -532.90625 C 330.023438 -523.4375 327.316406 -513.96875 323.257812 -505.855469 C 320.554688 -503.148438 317.847656 -503.148438 315.144531 -503.148438 C 305.675781 -500.445312 300.265625 -497.738281 301.617188 -490.976562 C 304.324219 -484.214844 301.617188 -480.15625 300.265625 -474.746094 C 298.914062 -467.984375 284.035156 -444.988281 278.625 -439.578125 C 273.214844 -436.875 271.863281 -430.109375 269.15625 -423.347656 C 263.746094 -421.996094 265.101562 -427.40625 263.746094 -428.757812 C 261.042969 -431.464844 256.984375 -434.167969 254.28125 -436.875 C 266.453125 -451.753906 271.863281 -470.6875 284.035156 -484.214844 C 286.742188 -497.738281 297.5625 -507.207031 305.675781 -516.675781 C 335.433594 -558.605469 363.835938 -603.238281 386.828125 -649.222656 C 389.535156 -654.632812 392.238281 -657.339844 396.296875 -660.046875 C 399.003906 -672.21875 413.878906 -706.03125 426.054688 -710.089844 Z M 200.175781 -737.140625 C 202.882812 -750.664062 209.644531 -760.132812 209.644531 -772.308594 C 213.703125 -765.542969 213.703125 -758.78125 212.351562 -752.019531 C 205.585938 -731.730469 204.234375 -710.089844 200.175781 -689.800781 C 196.121094 -666.808594 196.121094 -642.460938 185.300781 -618.117188 C 183.945312 -615.410156 183.945312 -614.058594 183.945312 -612.707031 C 186.652344 -600.53125 178.535156 -588.359375 178.535156 -577.539062 C 177.183594 -564.015625 170.421875 -553.195312 170.421875 -541.019531 C 165.011719 -532.90625 167.714844 -522.085938 163.660156 -512.617188 C 160.953125 -504.5 152.839844 -496.386719 159.601562 -485.566406 C 154.191406 -477.449219 151.484375 -469.335938 147.429688 -461.21875 C 140.664062 -478.804688 139.3125 -478.804688 146.074219 -493.679688 C 150.132812 -508.558594 148.78125 -523.4375 152.839844 -538.316406 C 158.25 -549.136719 162.304688 -562.660156 160.953125 -577.539062 C 160.953125 -581.597656 163.660156 -585.65625 165.011719 -589.710938 C 169.070312 -608.648438 177.183594 -630.289062 178.535156 -649.222656 C 178.535156 -654.632812 182.59375 -661.398438 183.945312 -666.808594 C 186.652344 -677.628906 189.355469 -688.449219 190.710938 -700.621094 C 190.710938 -712.792969 197.472656 -724.96875 200.175781 -737.140625 Z M 56.808594 -87.914062 C 56.808594 -79.800781 54.101562 -74.390625 47.339844 -68.980469 C 45.988281 -70.332031 45.988281 -71.683594 45.988281 -71.683594 C 59.511719 -133.902344 71.683594 -194.765625 87.914062 -259.691406 C 87.914062 -265.101562 91.972656 -267.804688 94.679688 -271.863281 C 98.734375 -261.042969 97.382812 -250.222656 96.03125 -240.753906 C 93.324219 -224.523438 87.914062 -209.644531 82.503906 -190.710938 C 81.152344 -183.945312 77.09375 -178.535156 82.503906 -171.773438 C 83.859375 -169.070312 83.859375 -169.070312 81.152344 -167.714844 C 70.332031 -160.953125 62.21875 -116.320312 60.863281 -104.144531 Z M 109.554688 -338.136719 C 109.554688 -346.253906 108.203125 -354.367188 116.320312 -358.425781 C 120.378906 -350.3125 120.378906 -343.546875 116.320312 -336.785156 C 114.96875 -335.433594 113.613281 -334.082031 112.261719 -334.082031 C 109.554688 -334.082031 108.203125 -336.785156 109.554688 -338.136719 Z M 123.082031 -388.183594 C 121.730469 -385.476562 120.378906 -385.476562 120.378906 -388.183594 L 120.378906 -392.238281 L 121.730469 -392.238281 C 123.082031 -390.886719 123.082031 -389.535156 123.082031 -388.183594 Z M 215.054688 -803.414062 C 216.40625 -803.414062 216.40625 -800.710938 216.40625 -800.710938 C 216.40625 -799.359375 216.40625 -798.003906 215.054688 -795.300781 C 215.054688 -796.652344 213.703125 -798.003906 213.703125 -798.003906 C 213.703125 -799.359375 215.054688 -800.710938 215.054688 -803.414062 Z M 444.988281 -745.253906 C 447.695312 -742.550781 446.34375 -742.550781 444.988281 -742.550781 C 444.988281 -743.902344 444.988281 -743.902344 444.988281 -745.253906 Z M 114.96875 -251.574219 L 117.671875 -251.574219 Z M 41.929688 -59.511719 L 41.929688 -56.808594 Z M 41.929688 -59.511719 "/></g></g></g><g fill="rgb(0%, 29.019165%, 67.83905%)" fill-opacity="1"><g transform="translate(3489.623037, 1013.56427)"><g><path d="M 210.996094 -169.070312 C 212.351562 -171.773438 209.644531 -174.480469 206.941406 -175.832031 L 206.941406 -178.535156 C 206.941406 -181.242188 206.941406 -183.945312 209.644531 -183.945312 C 209.644531 -183.945312 210.996094 -182.59375 212.351562 -182.59375 C 216.40625 -181.242188 221.820312 -179.890625 221.820312 -171.773438 L 221.820312 -146.074219 C 221.820312 -137.960938 225.875 -129.84375 227.230469 -121.730469 C 228.582031 -82.503906 252.925781 -55.453125 281.332031 -31.109375 C 282.683594 -29.757812 286.742188 -29.757812 288.09375 -28.402344 C 290.796875 -27.050781 293.503906 -25.699219 296.207031 -25.699219 C 313.792969 -25.699219 367.894531 -70.332031 380.066406 -82.503906 C 385.476562 -86.5625 382.773438 -93.324219 386.828125 -97.382812 C 390.886719 -100.089844 396.296875 -104.144531 400.355469 -108.203125 C 401.707031 -109.554688 401.707031 -112.261719 400.355469 -112.261719 L 396.296875 -112.261719 C 371.953125 -96.03125 348.957031 -79.800781 323.257812 -67.628906 C 315.144531 -63.570312 307.027344 -62.21875 298.914062 -62.21875 C 294.855469 -62.21875 290.796875 -62.21875 286.742188 -63.570312 C 274.566406 -79.800781 269.15625 -100.089844 269.15625 -120.378906 C 269.15625 -190.710938 304.324219 -340.84375 332.726562 -397.648438 C 342.195312 -413.878906 343.546875 -431.464844 340.84375 -449.046875 C 334.082031 -453.105469 327.316406 -457.164062 320.554688 -457.164062 C 316.496094 -457.164062 312.4375 -455.808594 308.382812 -453.105469 C 307.027344 -451.753906 304.324219 -451.753906 302.972656 -451.753906 C 300.265625 -451.753906 298.914062 -451.753906 296.207031 -453.105469 C 277.273438 -462.574219 258.335938 -462.574219 238.050781 -462.574219 C 205.585938 -461.21875 177.183594 -453.105469 151.484375 -431.464844 C 140.664062 -421.996094 129.84375 -409.824219 116.320312 -404.414062 C 114.96875 -403.058594 113.613281 -401.707031 113.613281 -400.355469 C 109.554688 -392.238281 102.792969 -384.125 96.03125 -381.417969 C 85.210938 -376.007812 87.914062 -363.835938 78.449219 -357.074219 C 50.042969 -331.375 29.757812 -289.445312 13.527344 -254.28125 C 10.820312 -251.574219 9.46875 -248.871094 8.117188 -246.164062 C -16.230469 -171.773438 -28.402344 -125.789062 -28.402344 -44.632812 C -28.402344 -18.9375 -18.9375 4.058594 1.351562 21.640625 L 10.820312 31.109375 C 14.878906 35.167969 20.289062 37.871094 27.050781 37.871094 C 33.8125 36.519531 41.929688 36.519531 48.691406 32.460938 C 68.980469 22.992188 116.320312 -8.117188 127.140625 -25.699219 C 129.84375 -29.757812 137.960938 -31.109375 140.664062 -36.519531 C 144.722656 -44.632812 151.484375 -51.398438 156.894531 -58.160156 C 152.839844 -68.980469 166.363281 -74.390625 167.714844 -82.503906 C 169.070312 -90.621094 174.480469 -98.734375 178.535156 -105.5 C 181.242188 -113.613281 185.300781 -120.378906 190.710938 -128.492188 C 193.414062 -133.902344 197.472656 -137.960938 196.121094 -144.722656 C 205.585938 -148.78125 208.292969 -159.601562 210.996094 -169.070312 Z M 29.757812 2.707031 C 28.402344 4.058594 25.699219 4.058594 22.992188 5.410156 C 20.289062 2.707031 17.582031 1.351562 17.582031 0 C 14.878906 -2.707031 14.878906 -6.761719 14.878906 -9.46875 C 14.878906 -18.9375 14.878906 -28.402344 10.820312 -37.871094 C 9.46875 -40.578125 9.46875 -44.632812 10.820312 -48.691406 C 16.230469 -67.628906 16.230469 -86.5625 18.9375 -106.851562 C 21.640625 -113.613281 22.992188 -121.730469 24.347656 -128.492188 C 32.460938 -152.839844 36.519531 -178.535156 47.339844 -201.53125 C 54.101562 -216.40625 58.160156 -231.285156 64.921875 -244.8125 C 67.628906 -250.222656 71.683594 -254.28125 74.390625 -259.691406 C 79.800781 -271.863281 89.269531 -281.332031 91.972656 -293.503906 C 93.324219 -294.855469 93.324219 -297.5625 94.679688 -298.914062 C 108.203125 -308.382812 114.96875 -323.257812 128.492188 -334.082031 C 139.3125 -343.546875 148.78125 -357.074219 160.953125 -366.542969 C 181.242188 -381.417969 200.175781 -396.296875 224.523438 -405.765625 C 238.050781 -411.175781 250.222656 -419.289062 261.042969 -430.109375 C 265.101562 -432.816406 266.453125 -434.167969 269.15625 -434.167969 C 271.863281 -434.167969 273.214844 -432.816406 275.921875 -430.109375 C 284.035156 -423.347656 285.386719 -419.289062 281.332031 -409.824219 C 274.566406 -393.59375 266.453125 -377.363281 262.394531 -359.777344 C 259.691406 -340.84375 244.8125 -294.855469 235.34375 -277.273438 C 223.171875 -250.222656 209.644531 -223.171875 196.121094 -194.765625 C 189.355469 -177.183594 177.183594 -160.953125 166.363281 -144.722656 C 158.25 -128.492188 147.429688 -113.613281 139.3125 -97.382812 C 112.261719 -54.101562 71.683594 -24.347656 29.757812 2.707031 Z M 196.121094 -159.601562 C 197.472656 -160.953125 197.472656 -162.304688 197.472656 -163.660156 L 200.175781 -160.953125 C 200.175781 -159.601562 198.824219 -158.25 197.472656 -156.894531 C 197.472656 -158.25 196.121094 -158.25 196.121094 -159.601562 Z M 41.929688 -288.09375 L 43.28125 -288.09375 L 43.28125 -286.742188 Z M 220.464844 -204.234375 L 219.113281 -204.234375 L 219.113281 -205.585938 Z M 37.871094 -278.625 L 37.871094 -277.273438 L 36.519531 -277.273438 Z M 171.773438 -114.96875 L 171.773438 -117.671875 Z M 171.773438 -114.96875 "/></g></g></g><g fill="rgb(0%, 29.019165%, 67.83905%)" fill-opacity="1"><g transform="translate(3875.099634, 1013.56427)"><g><path d="M 210.996094 -133.902344 C 212.351562 -135.253906 213.703125 -136.609375 215.054688 -137.960938 C 217.761719 -142.019531 217.761719 -150.132812 215.054688 -147.429688 C 213.703125 -146.074219 210.996094 -143.371094 209.644531 -140.664062 C 209.644531 -139.3125 210.996094 -136.609375 210.996094 -135.253906 C 196.121094 -132.550781 196.121094 -117.671875 189.355469 -113.613281 C 186.652344 -113.613281 185.300781 -112.261719 185.300781 -110.910156 C 186.652344 -110.910156 188.003906 -112.261719 189.355469 -112.261719 C 188.003906 -110.910156 186.652344 -108.203125 185.300781 -106.851562 C 185.300781 -106.851562 185.300781 -108.203125 185.300781 -109.554688 L 181.242188 -105.5 C 181.242188 -105.5 181.242188 -104.144531 182.59375 -102.792969 C 166.363281 -78.449219 113.613281 -17.582031 87.914062 -12.171875 C 83.859375 -6.761719 71.683594 -25.699219 63.570312 -25.699219 C 62.21875 -28.402344 62.21875 -31.109375 59.511719 -32.460938 C 52.75 -44.632812 51.398438 -56.808594 54.101562 -68.980469 C 54.101562 -75.742188 54.101562 -83.859375 55.453125 -89.269531 C 56.808594 -106.851562 55.453125 -124.433594 62.21875 -142.019531 C 63.570312 -144.722656 63.570312 -147.429688 60.863281 -150.132812 C 59.511719 -152.839844 59.511719 -155.542969 60.863281 -158.25 C 67.628906 -166.363281 67.628906 -179.890625 68.980469 -190.710938 C 71.683594 -202.882812 70.332031 -215.054688 78.449219 -224.523438 C 75.742188 -238.050781 85.210938 -246.164062 87.914062 -259.691406 C 90.621094 -273.214844 100.089844 -312.4375 105.5 -324.613281 C 127.140625 -370.597656 147.429688 -419.289062 156.894531 -469.335938 C 158.25 -482.859375 148.78125 -500.445312 136.609375 -507.207031 C 133.902344 -507.207031 131.199219 -508.558594 128.492188 -508.558594 L 113.613281 -508.558594 C 110.910156 -508.558594 108.203125 -507.207031 105.5 -505.855469 C 91.972656 -484.214844 83.859375 -461.21875 75.742188 -436.875 C 70.332031 -417.9375 64.921875 -397.648438 58.160156 -378.714844 C 55.453125 -369.246094 51.398438 -362.484375 48.691406 -353.015625 C 37.871094 -316.496094 28.402344 -279.976562 17.582031 -244.8125 C 14.878906 -228.582031 9.46875 -215.054688 8.117188 -201.53125 C 6.761719 -175.832031 2.707031 -150.132812 0 -124.433594 C -1.351562 -105.5 -2.707031 -86.5625 2.707031 -66.273438 C 4.058594 -63.570312 4.058594 -59.511719 5.410156 -55.453125 C 6.761719 -44.632812 12.171875 -35.167969 18.9375 -27.050781 C 27.050781 -17.582031 35.167969 -6.761719 43.28125 2.707031 C 50.042969 12.171875 59.511719 18.9375 71.683594 22.992188 C 75.742188 25.699219 81.152344 25.699219 86.5625 25.699219 C 109.554688 25.699219 140.664062 9.46875 155.542969 -10.820312 C 165.011719 -18.9375 162.304688 -21.640625 170.421875 -32.460938 C 178.535156 -40.578125 189.355469 -68.980469 185.300781 -82.503906 C 185.300781 -85.210938 183.945312 -87.914062 186.652344 -87.914062 C 189.355469 -86.5625 190.710938 -83.859375 193.414062 -82.503906 C 196.121094 -86.5625 192.0625 -91.972656 193.414062 -96.03125 C 194.765625 -101.441406 197.472656 -105.5 200.175781 -110.910156 C 202.882812 -117.671875 209.644531 -125.789062 209.644531 -133.902344 Z M 140.664062 -614.058594 C 148.78125 -607.296875 159.601562 -604.589844 170.421875 -599.179688 C 175.832031 -601.886719 182.59375 -604.589844 189.355469 -607.296875 C 193.414062 -608.648438 194.765625 -612.707031 194.765625 -615.410156 C 198.824219 -628.9375 196.121094 -641.109375 201.53125 -653.28125 C 202.882812 -654.632812 201.53125 -655.988281 200.175781 -657.339844 C 197.472656 -660.046875 192.0625 -662.75 188.003906 -662.75 C 186.652344 -662.75 185.300781 -662.75 183.945312 -661.398438 C 171.773438 -653.28125 158.25 -643.8125 147.429688 -634.347656 C 143.371094 -631.640625 140.664062 -627.582031 137.960938 -623.527344 C 136.609375 -620.820312 137.960938 -615.410156 140.664062 -614.058594 Z M 185.300781 -106.851562 C 185.300781 -105.5 185.300781 -104.144531 185.300781 -104.144531 C 185.300781 -102.792969 183.945312 -102.792969 183.945312 -101.441406 C 183.945312 -104.144531 183.945312 -105.5 185.300781 -106.851562 Z M 185.300781 -106.851562 "/></g></g></g><g fill="rgb(0%, 29.019165%, 67.83905%)" fill-opacity="1"><g transform="translate(4080.687009, 1013.56427)"><g><path d="M 89.269531 -284.035156 C 106.851562 -271.863281 127.140625 -262.394531 147.429688 -251.574219 C 142.019531 -246.164062 139.3125 -243.460938 137.960938 -239.402344 C 136.609375 -232.640625 133.902344 -225.875 123.082031 -224.523438 C 116.320312 -224.523438 113.613281 -220.464844 109.554688 -217.761719 C 109.554688 -215.054688 106.851562 -210.996094 105.5 -210.996094 C 102.792969 -210.996094 100.089844 -212.351562 98.734375 -212.351562 C 90.621094 -212.351562 87.914062 -206.941406 85.210938 -201.53125 C 86.5625 -198.824219 85.210938 -197.472656 82.503906 -197.472656 C 70.332031 -193.414062 63.570312 -185.300781 56.808594 -178.535156 C 51.398438 -175.832031 47.339844 -173.125 44.632812 -170.421875 C 21.640625 -160.953125 4.058594 -148.78125 -4.058594 -128.492188 C -13.527344 -116.320312 -16.230469 -102.792969 -27.050781 -87.914062 C -31.109375 -79.800781 -29.757812 -71.683594 -28.402344 -63.570312 C -21.640625 -35.167969 -9.46875 -10.820312 12.171875 9.46875 C 24.347656 28.402344 48.691406 35.167969 68.980469 37.871094 C 82.503906 37.871094 97.382812 35.167969 106.851562 31.109375 C 127.140625 24.347656 147.429688 16.230469 159.601562 0 C 162.304688 -2.707031 166.363281 -5.410156 171.773438 -9.46875 C 200.175781 -29.757812 209.644531 -33.8125 223.171875 -58.160156 C 227.230469 -67.628906 233.992188 -75.742188 239.402344 -82.503906 C 242.105469 -86.5625 242.105469 -90.621094 244.8125 -96.03125 C 258.335938 -116.320312 261.042969 -139.3125 266.453125 -163.660156 L 266.453125 -170.421875 C 265.101562 -188.003906 250.222656 -206.941406 243.460938 -223.171875 C 240.753906 -233.992188 231.285156 -242.105469 223.171875 -248.871094 C 217.761719 -254.28125 219.113281 -256.984375 223.171875 -259.691406 C 225.875 -262.394531 225.875 -263.746094 229.933594 -265.101562 C 255.632812 -277.273438 380.066406 -305.675781 407.117188 -312.4375 C 413.878906 -313.792969 420.644531 -316.496094 426.054688 -319.203125 C 430.109375 -320.554688 430.109375 -321.90625 430.109375 -323.257812 C 427.40625 -325.964844 423.347656 -328.667969 419.289062 -328.667969 L 413.878906 -328.667969 C 400.355469 -320.554688 384.125 -320.554688 370.597656 -315.144531 C 358.425781 -309.734375 248.871094 -286.742188 233.992188 -281.332031 C 227.230469 -279.976562 221.820312 -277.273438 215.054688 -273.214844 C 209.644531 -270.511719 204.234375 -269.15625 198.824219 -269.15625 C 192.0625 -269.15625 185.300781 -271.863281 178.535156 -275.921875 C 163.660156 -281.332031 143.371094 -293.503906 131.199219 -302.972656 C 116.320312 -312.4375 113.613281 -324.613281 119.023438 -335.433594 C 125.789062 -344.902344 133.902344 -354.367188 140.664062 -366.542969 C 144.722656 -378.714844 154.191406 -386.828125 170.421875 -392.238281 C 178.535156 -394.945312 188.003906 -400.355469 193.414062 -405.765625 C 209.644531 -416.585938 223.171875 -423.347656 242.105469 -426.054688 C 265.101562 -427.40625 279.976562 -435.519531 296.207031 -442.285156 C 302.972656 -443.636719 324.613281 -447.695312 328.667969 -447.695312 C 332.726562 -447.695312 339.492188 -447.695312 342.195312 -449.046875 C 351.664062 -451.753906 355.722656 -454.457031 355.722656 -459.867188 C 355.722656 -466.628906 347.605469 -470.6875 342.195312 -473.394531 C 330.023438 -477.449219 320.554688 -481.507812 308.382812 -481.507812 C 297.5625 -481.507812 288.09375 -482.859375 277.273438 -484.214844 C 252.925781 -488.269531 240.753906 -490.976562 231.285156 -490.976562 C 223.171875 -490.976562 216.40625 -488.269531 202.882812 -485.566406 C 192.0625 -482.859375 178.535156 -476.097656 167.714844 -472.039062 C 125.789062 -453.105469 94.679688 -424.699219 74.390625 -388.183594 C 64.921875 -376.007812 60.863281 -357.074219 56.808594 -342.195312 C 55.453125 -338.136719 56.808594 -334.082031 60.863281 -330.023438 C 67.628906 -321.90625 75.742188 -313.792969 75.742188 -301.617188 C 75.742188 -294.855469 83.859375 -289.445312 89.269531 -284.035156 Z M 192.0625 -220.464844 C 196.121094 -216.40625 196.121094 -212.351562 197.472656 -208.292969 C 201.53125 -181.242188 197.472656 -156.894531 183.945312 -133.902344 C 156.894531 -86.5625 113.613281 -37.871094 62.21875 -17.582031 C 56.808594 -16.230469 51.398438 -13.527344 44.632812 -13.527344 C 41.929688 -13.527344 39.222656 -13.527344 36.519531 -13.527344 C 31.109375 -13.527344 25.699219 -13.527344 17.582031 -17.582031 C 10.820312 -22.992188 10.820312 -32.460938 4.058594 -40.578125 C 4.058594 -40.578125 4.058594 -41.929688 2.707031 -43.28125 C 10.820312 -59.511719 4.058594 -77.09375 10.820312 -96.03125 C 21.640625 -128.492188 51.398438 -167.714844 83.859375 -181.242188 C 86.5625 -183.945312 90.621094 -186.652344 97.382812 -189.355469 C 112.261719 -194.765625 124.433594 -204.234375 137.960938 -213.703125 C 146.074219 -220.464844 160.953125 -224.523438 170.421875 -231.285156 C 171.773438 -231.285156 173.125 -232.640625 174.480469 -232.640625 C 181.242188 -232.640625 189.355469 -227.230469 192.0625 -220.464844 Z M 132.550781 -31.109375 C 131.199219 -31.109375 128.492188 -31.109375 131.199219 -33.8125 C 131.199219 -33.8125 125.789062 -35.167969 127.140625 -36.519531 C 132.550781 -52.75 146.074219 -63.570312 159.601562 -73.039062 C 162.304688 -74.390625 156.894531 -73.039062 162.304688 -71.683594 C 162.304688 -71.683594 166.363281 -67.628906 163.660156 -67.628906 C 154.191406 -56.808594 144.722656 -44.632812 132.550781 -31.109375 Z M 179.890625 -91.972656 C 177.183594 -87.914062 175.832031 -83.859375 170.421875 -81.152344 L 166.363281 -81.152344 L 165.011719 -82.503906 C 166.363281 -86.5625 167.714844 -91.972656 170.421875 -98.734375 C 171.773438 -101.441406 179.890625 -104.144531 179.890625 -101.441406 C 182.59375 -98.734375 182.59375 -97.382812 179.890625 -91.972656 Z M 87.914062 -2.707031 C 86.5625 -2.707031 85.210938 -2.707031 83.859375 -4.058594 C 83.859375 -10.820312 89.269531 -13.527344 100.089844 -13.527344 C 101.441406 -4.058594 101.441406 -4.058594 87.914062 -2.707031 Z M 192.0625 -112.261719 C 190.710938 -110.910156 189.355469 -109.554688 188.003906 -109.554688 C 186.652344 -109.554688 186.652344 -110.910156 183.945312 -110.910156 C 186.652344 -112.261719 188.003906 -114.96875 188.003906 -116.320312 L 190.710938 -116.320312 C 192.0625 -114.96875 192.0625 -112.261719 192.0625 -112.261719 Z M 71.683594 0 C 73.039062 -1.351562 73.039062 -2.707031 73.039062 -2.707031 L 82.503906 -2.707031 C 82.503906 -1.351562 82.503906 0 79.800781 0 Z M 120.378906 -32.460938 L 121.730469 -31.109375 L 120.378906 -31.109375 Z M 90.621094 14.878906 L 89.269531 14.878906 L 89.269531 13.527344 Z M 90.621094 14.878906 "/></g></g></g><g fill="rgb(0%, 29.019165%, 67.83905%)" fill-opacity="1"><g transform="translate(4424.234209, 1013.56427)"><g><path d="M 102.792969 -358.425781 C 98.734375 -346.253906 85.210938 -342.195312 81.152344 -330.023438 C 81.152344 -328.667969 78.449219 -328.667969 77.09375 -327.316406 C 77.09375 -327.316406 75.742188 -327.316406 74.390625 -325.964844 C 67.628906 -325.964844 66.273438 -321.90625 66.273438 -316.496094 C 66.273438 -308.382812 63.570312 -302.972656 56.808594 -300.265625 C 50.042969 -298.914062 45.988281 -293.503906 43.28125 -289.445312 C 41.929688 -286.742188 41.929688 -282.683594 40.578125 -279.976562 C 39.222656 -278.625 37.871094 -277.273438 36.519531 -277.273438 C 37.871094 -275.921875 39.222656 -275.921875 40.578125 -274.566406 C 36.519531 -265.101562 33.8125 -255.632812 29.757812 -246.164062 C 17.582031 -224.523438 13.527344 -198.824219 0 -177.183594 L 0 -175.832031 C -2.707031 -166.363281 -4.058594 -158.25 -6.761719 -150.132812 C -8.117188 -142.019531 -9.46875 -132.550781 -12.171875 -125.789062 C -16.230469 -116.320312 -13.527344 -108.203125 -14.878906 -100.089844 C -17.582031 -89.269531 -18.9375 -75.742188 -14.878906 -64.921875 C -10.820312 -48.691406 -9.46875 -31.109375 2.707031 -17.582031 C 9.46875 2.707031 43.28125 36.519531 66.273438 36.519531 C 74.390625 36.519531 82.503906 37.871094 90.621094 37.871094 C 102.792969 37.871094 114.96875 36.519531 127.140625 28.402344 C 131.199219 25.699219 136.609375 24.347656 142.019531 22.992188 C 158.25 17.582031 174.480469 9.46875 189.355469 -1.351562 C 205.585938 -13.527344 223.171875 -24.347656 239.402344 -36.519531 C 252.925781 -47.339844 269.15625 -55.453125 278.625 -68.980469 C 285.386719 -77.09375 292.152344 -82.503906 298.914062 -89.269531 L 315.144531 -105.5 C 320.554688 -110.910156 324.613281 -116.320312 323.257812 -123.082031 C 323.257812 -132.550781 336.785156 -131.199219 336.785156 -139.3125 L 336.785156 -140.664062 C 342.195312 -144.722656 346.253906 -150.132812 351.664062 -154.191406 C 365.1875 -166.363281 376.007812 -182.59375 390.886719 -193.414062 C 393.59375 -196.121094 393.59375 -200.175781 396.296875 -202.882812 C 421.996094 -235.34375 442.285156 -286.742188 436.875 -288.09375 C 436.875 -289.445312 436.875 -289.445312 435.519531 -289.445312 L 435.519531 -288.09375 C 434.167969 -286.742188 432.816406 -285.386719 431.464844 -284.035156 L 430.109375 -284.035156 L 430.109375 -282.683594 C 427.40625 -278.625 424.699219 -274.566406 420.644531 -269.15625 C 419.289062 -266.453125 417.9375 -265.101562 416.585938 -262.394531 L 416.585938 -258.335938 C 412.527344 -254.28125 407.117188 -247.515625 403.058594 -242.105469 C 389.535156 -224.523438 377.363281 -209.644531 363.835938 -192.0625 C 354.367188 -186.652344 342.195312 -174.480469 336.785156 -165.011719 C 332.726562 -158.25 327.316406 -152.839844 320.554688 -148.78125 C 305.675781 -137.960938 293.503906 -123.082031 278.625 -110.910156 C 262.394531 -89.269531 209.644531 -59.511719 186.652344 -47.339844 C 186.652344 -45.988281 185.300781 -47.339844 183.945312 -47.339844 C 182.59375 -48.691406 182.59375 -50.042969 183.945312 -51.398438 C 186.652344 -54.101562 188.003906 -56.808594 189.355469 -60.863281 C 190.710938 -60.863281 190.710938 -60.863281 192.0625 -62.21875 C 193.414062 -62.21875 196.121094 -60.863281 198.824219 -62.21875 C 205.585938 -66.273438 212.351562 -71.683594 219.113281 -75.742188 C 220.464844 -77.09375 220.464844 -79.800781 221.820312 -82.503906 C 231.285156 -81.152344 235.34375 -87.914062 240.753906 -93.324219 L 240.753906 -96.03125 C 239.402344 -96.03125 236.695312 -97.382812 236.695312 -96.03125 C 231.285156 -91.972656 224.523438 -89.269531 221.820312 -82.503906 C 208.292969 -79.800781 198.824219 -74.390625 192.0625 -62.21875 C 186.652344 -60.863281 183.945312 -60.863281 181.242188 -59.511719 C 165.011719 -51.398438 147.429688 -41.929688 131.199219 -33.8125 C 121.730469 -29.757812 112.261719 -24.347656 101.441406 -22.992188 C 86.5625 -18.9375 73.039062 -14.878906 56.808594 -14.878906 C 32.460938 -20.289062 18.9375 -45.988281 18.9375 -70.332031 C 20.289062 -77.09375 20.289062 -82.503906 18.9375 -89.269531 C 17.582031 -120.378906 29.757812 -146.074219 43.28125 -174.480469 C 50.042969 -159.601562 62.21875 -150.132812 78.449219 -150.132812 C 102.792969 -158.25 128.492188 -165.011719 151.484375 -178.535156 C 170.421875 -190.710938 189.355469 -200.175781 208.292969 -209.644531 C 216.40625 -215.054688 223.171875 -219.113281 227.230469 -227.230469 C 231.285156 -233.992188 236.695312 -239.402344 243.460938 -243.460938 C 261.042969 -255.632812 294.855469 -294.855469 294.855469 -317.847656 C 297.5625 -334.082031 297.5625 -351.664062 300.265625 -367.894531 C 301.617188 -386.828125 301.617188 -407.117188 294.855469 -426.054688 L 290.796875 -438.226562 C 275.921875 -455.808594 262.394531 -463.925781 239.402344 -463.925781 C 233.992188 -463.925781 227.230469 -463.925781 219.113281 -461.21875 C 200.175781 -455.808594 185.300781 -442.285156 169.070312 -431.464844 C 159.601562 -424.699219 151.484375 -416.585938 143.371094 -409.824219 C 139.3125 -397.648438 127.140625 -394.945312 119.023438 -386.828125 C 116.320312 -382.773438 113.613281 -378.714844 112.261719 -373.304688 C 110.910156 -367.894531 108.203125 -363.835938 102.792969 -362.484375 Z M 275.921875 -426.054688 C 279.976562 -417.9375 285.386719 -409.824219 284.035156 -400.355469 L 284.035156 -386.828125 C 284.035156 -285.386719 166.363281 -216.40625 78.449219 -189.355469 C 70.332031 -188.003906 62.21875 -186.652344 54.101562 -186.652344 C 47.339844 -186.652344 44.632812 -189.355469 50.042969 -200.175781 C 56.808594 -210.996094 58.160156 -224.523438 67.628906 -232.640625 C 71.683594 -236.695312 71.683594 -243.460938 74.390625 -247.515625 C 79.800781 -252.925781 81.152344 -262.394531 85.210938 -269.15625 C 96.03125 -284.035156 108.203125 -298.914062 119.023438 -312.4375 C 121.730469 -316.496094 124.433594 -319.203125 128.492188 -321.90625 C 143.371094 -332.726562 156.894531 -346.253906 170.421875 -359.777344 C 181.242188 -370.597656 193.414062 -382.773438 206.941406 -392.238281 C 224.523438 -403.058594 240.753906 -419.289062 258.335938 -430.109375 C 261.042969 -431.464844 263.746094 -432.816406 266.453125 -432.816406 C 270.511719 -432.816406 273.214844 -431.464844 275.921875 -426.054688 Z M 45.988281 -279.976562 C 45.988281 -275.921875 43.28125 -274.566406 40.578125 -274.566406 L 40.578125 -279.976562 Z M 52.75 -285.386719 C 52.75 -286.742188 54.101562 -288.09375 55.453125 -289.445312 C 55.453125 -289.445312 58.160156 -288.09375 59.511719 -288.09375 C 58.160156 -286.742188 58.160156 -286.742188 58.160156 -285.386719 Z M 415.234375 -252.925781 C 413.878906 -252.925781 413.878906 -254.28125 413.878906 -254.28125 C 415.234375 -254.28125 415.234375 -252.925781 415.234375 -252.925781 Z M 73.039062 -334.082031 L 74.390625 -332.726562 L 74.390625 -334.082031 Z M 73.039062 -313.792969 L 74.390625 -313.792969 L 74.390625 -312.4375 Z M 416.585938 -256.984375 C 417.9375 -256.984375 419.289062 -255.632812 419.289062 -255.632812 C 417.9375 -255.632812 417.9375 -256.984375 416.585938 -256.984375 Z M 52.75 -285.386719 C 51.398438 -285.386719 51.398438 -284.035156 51.398438 -284.035156 C 51.398438 -284.035156 51.398438 -284.035156 51.398438 -285.386719 Z M 52.75 -285.386719 "/></g></g></g><g fill="rgb(0%, 29.019165%, 67.83905%)" fill-opacity="1"><g transform="translate(4819.178651, 1013.56427)"><g><path d="M 163.660156 -350.3125 C 166.363281 -350.3125 167.714844 -353.015625 169.070312 -354.367188 C 177.183594 -357.074219 177.183594 -365.1875 182.59375 -369.246094 C 197.472656 -378.714844 208.292969 -392.238281 220.464844 -404.414062 C 239.402344 -423.347656 259.691406 -438.226562 281.332031 -451.753906 C 281.332031 -443.636719 281.332031 -443.636719 279.976562 -442.285156 C 271.863281 -438.226562 263.746094 -432.816406 259.691406 -423.347656 C 250.222656 -421.996094 248.871094 -411.175781 240.753906 -407.117188 C 232.640625 -401.707031 224.523438 -394.945312 220.464844 -384.125 C 219.113281 -382.773438 217.761719 -378.714844 215.054688 -378.714844 C 205.585938 -376.007812 202.882812 -365.1875 194.765625 -359.777344 C 185.300781 -355.722656 182.59375 -344.902344 177.183594 -338.136719 L 148.78125 -305.675781 C 140.664062 -296.207031 132.550781 -285.386719 128.492188 -271.863281 C 127.140625 -265.101562 124.433594 -259.691406 119.023438 -255.632812 C 114.96875 -251.574219 112.261719 -247.515625 108.203125 -243.460938 C 113.613281 -242.105469 117.671875 -240.753906 120.378906 -240.753906 C 125.789062 -240.753906 129.84375 -243.460938 131.199219 -248.871094 C 135.253906 -266.453125 150.132812 -277.273438 160.953125 -292.152344 C 166.363281 -297.5625 170.421875 -302.972656 175.832031 -309.734375 C 185.300781 -323.257812 194.765625 -336.785156 206.941406 -347.605469 C 215.054688 -353.015625 220.464844 -361.132812 225.875 -367.894531 C 229.933594 -377.363281 236.695312 -384.125 243.460938 -389.535156 C 251.574219 -393.59375 254.28125 -400.355469 256.984375 -407.117188 C 262.394531 -408.46875 266.453125 -412.527344 270.511719 -412.527344 C 271.863281 -412.527344 274.566406 -411.175781 275.921875 -409.824219 C 274.566406 -407.117188 274.566406 -403.058594 273.214844 -400.355469 C 270.511719 -390.886719 269.15625 -380.066406 265.101562 -370.597656 C 263.746094 -365.1875 269.15625 -366.542969 270.511719 -363.835938 C 271.863281 -362.484375 271.863281 -361.132812 273.214844 -359.777344 C 271.863281 -359.777344 267.804688 -359.777344 270.511719 -357.074219 L 273.214844 -359.777344 C 275.921875 -361.132812 278.625 -363.835938 277.273438 -365.1875 C 273.214844 -373.304688 271.863281 -378.714844 282.683594 -382.773438 C 288.09375 -385.476562 290.796875 -390.886719 294.855469 -396.296875 C 298.914062 -405.765625 304.324219 -413.878906 309.734375 -423.347656 C 315.144531 -431.464844 319.203125 -440.933594 324.613281 -449.046875 C 320.554688 -463.925781 309.734375 -472.039062 298.914062 -481.507812 C 296.207031 -484.214844 293.503906 -485.566406 289.445312 -485.566406 C 285.386719 -485.566406 279.976562 -484.214844 279.976562 -480.15625 C 281.332031 -476.097656 279.976562 -474.746094 278.625 -474.746094 C 275.921875 -474.746094 274.566406 -474.746094 273.214844 -474.746094 C 273.214844 -477.449219 270.511719 -478.804688 269.15625 -478.804688 C 259.691406 -476.097656 250.222656 -473.394531 247.515625 -463.925781 C 244.8125 -463.925781 242.105469 -463.925781 239.402344 -462.574219 C 227.230469 -453.105469 213.703125 -442.285156 205.585938 -427.40625 L 216.40625 -427.40625 C 204.234375 -411.175781 190.710938 -397.648438 174.480469 -386.828125 L 174.480469 -396.296875 C 162.304688 -389.535156 154.191406 -377.363281 144.722656 -367.894531 C 143.371094 -365.1875 143.371094 -362.484375 143.371094 -359.777344 C 140.664062 -359.777344 137.960938 -358.425781 137.960938 -354.367188 L 137.960938 -355.722656 C 140.664062 -355.722656 143.371094 -357.074219 143.371094 -359.777344 C 146.074219 -362.484375 150.132812 -363.835938 154.191406 -365.1875 C 152.839844 -362.484375 152.839844 -358.425781 151.484375 -355.722656 C 142.019531 -346.253906 133.902344 -334.082031 125.789062 -321.90625 C 123.082031 -316.496094 119.023438 -309.734375 112.261719 -308.382812 L 112.261719 -317.847656 C 112.261719 -317.847656 113.613281 -319.203125 113.613281 -319.203125 C 112.261719 -319.203125 112.261719 -319.203125 112.261719 -319.203125 L 104.144531 -313.792969 C 101.441406 -311.085938 100.089844 -309.734375 97.382812 -308.382812 C 96.03125 -313.792969 97.382812 -317.847656 98.734375 -323.257812 C 110.910156 -350.3125 120.378906 -378.714844 129.84375 -407.117188 C 133.902344 -415.234375 136.609375 -423.347656 140.664062 -431.464844 C 144.722656 -438.226562 144.722656 -446.34375 143.371094 -453.105469 C 142.019531 -459.867188 135.253906 -462.574219 129.84375 -465.277344 C 120.378906 -472.039062 110.910156 -480.15625 101.441406 -486.917969 C 98.734375 -488.269531 94.679688 -486.917969 93.324219 -484.214844 C 91.972656 -482.859375 91.972656 -481.507812 91.972656 -481.507812 C 83.859375 -454.457031 73.039062 -427.40625 63.570312 -401.707031 C 58.160156 -389.535156 52.75 -376.007812 51.398438 -362.484375 C 48.691406 -350.3125 45.988281 -339.492188 40.578125 -328.667969 C 31.109375 -307.027344 28.402344 -284.035156 20.289062 -262.394531 C 17.582031 -256.984375 17.582031 -250.222656 18.9375 -247.515625 C 24.347656 -238.050781 20.289062 -231.285156 17.582031 -224.523438 C 12.171875 -213.703125 8.117188 -201.53125 5.410156 -188.003906 L -6.761719 -139.3125 C -8.117188 -129.84375 -6.761719 -121.730469 -10.820312 -113.613281 C -14.878906 -105.5 -10.820312 -94.679688 -16.230469 -86.5625 C -17.582031 -70.332031 -25.699219 -54.101562 -22.992188 -37.871094 C -21.640625 -28.402344 -22.992188 -20.289062 -27.050781 -12.171875 L -24.347656 -9.46875 C -20.289062 -12.171875 -20.289062 -14.878906 -16.230469 -14.878906 C -16.230469 -14.878906 -14.878906 -13.527344 -13.527344 -13.527344 C -13.527344 -8.117188 -13.527344 0 -12.171875 6.761719 C -10.820312 16.230469 -4.058594 21.640625 4.058594 24.347656 C 8.117188 24.347656 10.820312 22.992188 13.527344 20.289062 C 18.9375 8.117188 21.640625 -4.058594 22.992188 -17.582031 C 24.347656 -29.757812 27.050781 -40.578125 31.109375 -52.75 C 37.871094 -68.980469 41.929688 -86.5625 51.398438 -101.441406 C 59.511719 -114.96875 62.21875 -129.84375 71.683594 -140.664062 C 86.5625 -158.25 93.324219 -181.242188 101.441406 -202.882812 C 105.5 -210.996094 108.203125 -219.113281 110.910156 -227.230469 C 110.910156 -228.582031 108.203125 -231.285156 105.5 -232.640625 C 105.5 -233.992188 102.792969 -232.640625 101.441406 -232.640625 C 98.734375 -227.230469 94.679688 -221.820312 91.972656 -216.40625 C 89.269531 -209.644531 86.5625 -201.53125 81.152344 -196.121094 C 74.390625 -190.710938 68.980469 -181.242188 64.921875 -173.125 C 63.570312 -167.714844 60.863281 -163.660156 55.453125 -162.304688 C 56.808594 -173.125 60.863281 -183.945312 64.921875 -193.414062 C 70.332031 -209.644531 75.742188 -224.523438 89.269531 -235.34375 C 90.621094 -238.050781 94.679688 -240.753906 94.679688 -243.460938 C 98.734375 -261.042969 109.554688 -273.214844 120.378906 -288.09375 C 123.082031 -290.796875 116.320312 -297.5625 121.730469 -298.914062 C 131.199219 -301.617188 128.492188 -309.734375 132.550781 -315.144531 C 137.960938 -323.257812 143.371094 -330.023438 148.78125 -339.492188 C 151.484375 -344.902344 156.894531 -348.957031 163.660156 -350.3125 Z M 247.515625 -443.636719 C 246.164062 -440.933594 244.8125 -438.226562 242.105469 -438.226562 L 242.105469 -443.636719 L 231.285156 -443.636719 C 232.640625 -447.695312 236.695312 -450.398438 240.753906 -454.457031 C 243.460938 -457.164062 246.164062 -459.867188 247.515625 -463.925781 L 256.984375 -463.925781 C 254.28125 -458.515625 250.222656 -453.105469 247.515625 -447.695312 C 248.871094 -447.695312 250.222656 -446.34375 251.574219 -446.34375 C 250.222656 -444.988281 248.871094 -443.636719 247.515625 -443.636719 Z M 83.859375 -265.101562 C 83.859375 -265.101562 85.210938 -263.746094 85.210938 -262.394531 C 85.210938 -258.335938 82.503906 -255.632812 79.800781 -252.925781 C 78.449219 -252.925781 78.449219 -252.925781 77.09375 -254.28125 L 77.09375 -255.632812 C 77.09375 -259.691406 78.449219 -261.042969 81.152344 -263.746094 C 82.503906 -263.746094 82.503906 -265.101562 83.859375 -265.101562 Z M 247.515625 -449.046875 C 244.8125 -447.695312 242.105469 -446.34375 242.105469 -443.636719 L 247.515625 -443.636719 Z M 52.75 -159.601562 C 50.042969 -162.304688 54.101562 -162.304688 55.453125 -162.304688 C 54.101562 -162.304688 54.101562 -160.953125 52.75 -159.601562 Z M 125.789062 -338.136719 L 124.433594 -336.785156 L 125.789062 -336.785156 Z M 154.191406 -365.1875 C 154.191406 -365.1875 152.839844 -365.1875 152.839844 -365.1875 Z M 154.191406 -365.1875 "/></g></g></g></svg>